<svg xmlns="http://www.w3.org/2000/svg" xmlns:xlink="http://www.w3.org/1999/xlink" width="592.475" height="403.259" viewBox="0 0 592.475 403.259">
  <defs>
    <linearGradient id="linear-gradient" x1="28.854" y1="107.889" x2="29.854" y2="107.889" gradientUnits="objectBoundingBox">
      <stop offset="0" stop-color="#f71d69"/>
      <stop offset="1" stop-color="#f8c648"/>
    </linearGradient>
    <linearGradient id="linear-gradient-2" x1="9.527" y1="36.334" x2="10.527" y2="36.334" gradientUnits="objectBoundingBox">
      <stop offset="0" stop-color="#e5a4ed"/>
      <stop offset="1" stop-color="#7a5bf5"/>
    </linearGradient>
    <linearGradient id="linear-gradient-3" x1="30.602" y1="57.417" x2="31.602" y2="57.417" xlink:href="#linear-gradient-2"/>
    <linearGradient id="linear-gradient-5" x1="30.51" y1="57.396" x2="31.507" y2="57.396" xlink:href="#linear-gradient-2"/>
    <linearGradient id="linear-gradient-6" x1="7.437" y1="-15.109" x2="8.438" y2="-15.109" gradientUnits="objectBoundingBox">
      <stop offset="0" stop-color="#93fd93"/>
      <stop offset="0.51" stop-color="#21c2c1"/>
      <stop offset="1" stop-color="#84f599"/>
    </linearGradient>
    <linearGradient id="linear-gradient-7" x1="8.605" y1="-16.002" x2="9.237" y2="-16.854" xlink:href="#linear-gradient-6"/>
    <linearGradient id="linear-gradient-8" x1="8.516" y1="-24.871" x2="9.427" y2="-23.806" xlink:href="#linear-gradient-6"/>
    <linearGradient id="linear-gradient-9" x1="17.061" y1="-9.023" x2="15.647" y2="-8.43" xlink:href="#linear-gradient-6"/>
    <linearGradient id="linear-gradient-10" x1="15.745" y1="-8.646" x2="16.745" y2="-8.646" xlink:href="#linear-gradient-6"/>
    <linearGradient id="linear-gradient-11" x1="8.209" y1="-14.017" x2="8.778" y2="-13.257" xlink:href="#linear-gradient-6"/>
    <linearGradient id="linear-gradient-12" x1="10.19" y1="-24.867" x2="11.189" y2="-24.867" xlink:href="#linear-gradient-2"/>
    <linearGradient id="linear-gradient-13" x1="4.377" y1="5.854" x2="5.376" y2="5.854" gradientUnits="objectBoundingBox">
      <stop offset="0" stop-color="#4b45bd"/>
      <stop offset="1" stop-color="#58caea"/>
    </linearGradient>
    <linearGradient id="linear-gradient-14" x1="3.118" y1="5.689" x2="4.119" y2="5.689" gradientUnits="objectBoundingBox">
      <stop offset="0" stop-color="#f87b58"/>
      <stop offset="0.41" stop-color="#f89453"/>
      <stop offset="0.71" stop-color="#f8c548"/>
      <stop offset="1" stop-color="#f89c51"/>
    </linearGradient>
    <linearGradient id="linear-gradient-15" x1="2.808" y1="8.093" x2="3.809" y2="8.093" xlink:href="#linear-gradient-2"/>
    <linearGradient id="linear-gradient-16" x1="0.001" y1="10.829" x2="1.003" y2="10.829" xlink:href="#linear-gradient-13"/>
  </defs>
  <g id="example-29" transform="translate(19.304 0.075)">
    <g id="bg" transform="translate(-10.155 -0.075)">
      <path id="Path_177" data-name="Path 177" d="M17.97,180.628a72.64,72.64,0,0,1-6.832-51.714C23.142,79.43,57.112-7.44,147.018,4.848,271.8,21.927,308.091,26.2,359.283,10.161S499.006-5.827,526.713,30.42c16.8,21.967,73.586,120.508,37.338,154.668s17.554,101.72,19.215,137.588-50.1,40.517-115.194,41.608S24.85,352.945,24.85,352.945s-48.488-83.6-10.058-113.439C38.561,221,27.886,198.894,17.97,180.628Z" transform="translate(0.021 0.075)" fill="#f8f8ff"/>
      <path id="Path_178" data-name="Path 178" d="M70.723,657.32c-8.3-.285-39.473,3.985-41.324,5.6-.474.427-7.306,20.733,22.726,46.922,48.013,41.941,177.156,43.364,219,27.422,60.728-23.153,127.292,20.259,265.212,3.653,44.076-5.314,73.538-72.827,53.517-81.6-12-5.219-26.379,8.635-38.43,2.562-13.9-7.022-42.035-11.387-59.447-6.025a1.366,1.366,0,0,0-.949,1.661,1.343,1.343,0,0,0,1.566.949l-9.157,2.942c-10.2,7.591-7.923-2.515-31.835-3.8l-70.5-1.755c-25.193.759-122.216,5.029-160.171,3.511H200.056c-13.949-1.755-50.053-2.562-51.382-2.609Z" transform="translate(-14.919 -343.395)" fill="#f5f5fc"/>
    </g>
    <g id="chair" transform="translate(67.5 210.565)">
      <path id="Path_179" data-name="Path 179" d="M164.1,465.9" transform="translate(-163.889 -455.462)" fill="#fff"/>
      <path id="Path_180" data-name="Path 180" d="M178.1,443.9h21.35s6.642.949,7.117,5.693-.142,66.469-.142,66.469l42.842-.522a6.561,6.561,0,0,1,4.27,6.168,7.638,7.638,0,0,1-3.321,6.642l-65.093-.285L178.1,443.9" transform="translate(-171.247 -443.9)" fill="#bac6f2"/>
      <path id="Path_181" data-name="Path 181" d="M170.509,443.9s-6.168.949-6.642,10.438,0,73.538,0,73.538l65.046.474a3.237,3.237,0,0,0,2.467-1.091c.949-1.044,2.23-2.657,2.23-4.128,0-2.562-.949-6.642-6.168-6.642s-49.342-.474-49.342-.474l-.949-66.422C177.151,449.641,177.151,444.849,170.509,443.9Z" transform="translate(-163.656 -443.9)" fill="#b1c1f2"/>
      <path id="Path_182" data-name="Path 182" d="M235.323,620.547s-1.139,5.361,2.657,5.361h6.168c.474,0,2.514-2.847,1.234-5.219s-10.058-.142-10.058-.142" transform="translate(-201.237 -536.239)" fill="#bac6f2"/>
      <path id="Path_183" data-name="Path 183" d="M241.1,632.632l.474,53.564h4.27l.237-53.9Z" transform="translate(-204.357 -542.915)" fill="#e9edfa"/>
      <path id="Path_184" data-name="Path 184" d="M204.1,743.9l40.8.474v3.8l-40.8-.474Z" transform="translate(-184.912 -601.568)" fill="#e9edfa"/>
    </g>
    <g id="table" transform="translate(143.146 232.389)">
      <path id="Path_185" data-name="Path 185" d="M372,644.058,370.1,544.9h9.963l-.474,99.158Z" transform="translate(-347.801 -518.806)" fill="#fff"/>
      <path id="Path_186" data-name="Path 186" d="M831.1,545.9h10.912l-3.8,99.158-7.117.474Z" transform="translate(-590.084 -519.331)" fill="#fff"/>
      <path id="Path_187" data-name="Path 187" d="M354.1,508.374l.474,16.131,241.49,1.423.285-18.029Z" transform="translate(-339.392 -499.36)" fill="#e9edfa"/>
      <path id="Path_188" data-name="Path 188" d="M323.1,489.9l271.38.949v9.014l-270.906-.474Z" transform="translate(-323.1 -489.9)" fill="#bac6f2"/>
    </g>
    <g id="flower" transform="translate(450.665 201.988)">
      <path id="Path_189" data-name="Path 189" d="M1022.8,667.7l.474,40.327,54.086-.949V667.7Z" transform="translate(-998.352 -552.943)" fill="#e9edfa"/>
      <path id="Path_190" data-name="Path 190" d="M1109.016,707.268l.047-39.568H1105.6" transform="translate(-1041.869 -552.943)" fill="#fff"/>
      <path id="Path_191" data-name="Path 191" d="M1052.352,540.484s-1.281-23.912,10.011-30.7,1.613-22.631,3.891-31.028,12.9-14.565,12.9-21.018-.949-24.576,11.292-30.032,21.967,1.613,18.124,12.288-6.785,22.963-11.007,26.806-2.562,10.011-1.945,17.459-5.171,19.689-8.4,24.244,0,12.288-.949,20.354c0,0-1.755,11.292-3.558,11.671S1052.352,540.484,1052.352,540.484Z" transform="translate(-1013.861 -425.822)" fill="#bac6f2"/>
      <path id="Path_192" data-name="Path 192" d="M1035,608.709s1.423-11.387-11.2-14.613-1.8-10.77-4.317-14.755-14.423-6.927-14.423-9.963,1.091-11.671-12.62-14.281-24.529.759-20.211,5.836,7.591,10.912,12.241,12.762,2.894,4.745,2.182,8.3,5.788,9.394,9.394,11.529,0,5.836,1.091,9.679c0,0,1.993,5.361,3.938,5.551S1035,608.709,1035,608.709Z" transform="translate(-971.271 -493.288)" fill="#bac6f2"/>
      <path id="Path_193" data-name="Path 193" d="M1083.362,605.822s-1-11.908,7.781-15.277,1.281-11.244,2.989-15.419,10.058-7.211,10.058-10.438-.759-12.193,8.777-14.945,17.08.807,14.043,6.12-5.266,11.387-8.54,13.332-1.993,4.982-1.518,8.682-4.033,9.821-6.547,12.051,0,6.12-.759,10.106c0,0-1.376,5.6-2.752,5.788S1083.362,605.822,1083.362,605.822Z" transform="translate(-1030.164 -490.449)" fill="#bac6f2"/>
    </g>
    <g id="board" transform="translate(88.206 88.064)">
      <path id="Path_194" data-name="Path 194" d="M441.9,185.7l.332,91,253.114-.38V186.412Z" transform="translate(-330.596 -185.7)" fill="#fff"/>
      <path id="Path_195" data-name="Path 195" d="M537.3,245.7v11.2l103.665-.474V245.7Z" transform="translate(-380.735 -217.234)" fill="#bac6f2"/>
      <path id="Path_196" data-name="Path 196" d="M537.3,311.4v11.2l103.665-.474V311.4Z" transform="translate(-380.735 -251.763)" fill="#bac6f2"/>
      <circle id="Ellipse_103" data-name="Ellipse 103" cx="7.781" cy="7.781" r="7.781" transform="translate(131.278 27.992)" fill="#bac6f2"/>
      <circle id="Ellipse_104" data-name="Ellipse 104" cx="7.781" cy="7.781" r="7.781" transform="translate(131.278 57.075)" fill="#bac6f2"/>
      <rect id="Rectangle_43" data-name="Rectangle 43" width="61.535" height="30.032" transform="translate(288.555 40.707)" fill="#e9edfa"/>
      <path id="Path_197" data-name="Path 197" d="M813.4,303.84s4.792-10.485,9.346-9.346,5.693,5.931,9.109,3.89,5.646-10.3,8.967-11.624c4.744-1.85,6.31.19,12.715,3.843s9.109,2.847,11.719.142c2.42-2.467,6.879-9.157,11.814-12.146" transform="translate(-525.842 -234.524)" fill="none" stroke="#bac6f2" stroke-linecap="round" stroke-linejoin="round" stroke-width="3"/>
      <rect id="Rectangle_44" data-name="Rectangle 44" width="91.567" height="87.06" transform="translate(0 1.186)" fill="#fff"/>
      <circle id="Ellipse_105" data-name="Ellipse 105" cx="23.675" cy="23.675" r="23.675" transform="translate(20.923 30.222)" fill="none" stroke="#bac6f2" stroke-linecap="round" stroke-linejoin="round" stroke-width="6"/>
      <rect id="Rectangle_45" data-name="Rectangle 45" width="23.295" height="5.504" transform="translate(6.025 8.73)" fill="#bac6f2"/>
      <rect id="Rectangle_46" data-name="Rectangle 46" width="23.295" height="5.504" transform="translate(6.025 17.365)" fill="#bac6f2"/>
    </g>
    <g id="Computer" transform="translate(159.42 157.523)">
      <path id="Path_198" data-name="Path 198" d="M360.347,449.589H432.6a2.98,2.98,0,0,0,2.7-3.274V440.1H357.5v7.544a2.841,2.841,0,0,0,2.847,1.945" transform="translate(-357.453 -388.86)" fill="#bac5f4"/>
      <path id="Path_199" data-name="Path 199" d="M357.447,336.37l-.047,49.342L435.256,385V334.947a2.372,2.372,0,0,0-2.562-2.847h-72.3s-3.274,0-2.942,4.27" transform="translate(-357.4 -332.1)" fill="#bac5f4"/>
      <path id="Path_200" data-name="Path 200" d="M426.5,472.811V459.1l11.387.474v12.051Z" transform="translate(-393.716 -398.846)" fill="#bac5f4"/>
      <path id="Path_201" data-name="Path 201" d="M388.4,485.1h47.3l.047,2.372H388.4Z" transform="translate(-373.692 -412.511)" fill="#bac5f4"/>
      <path id="Path_202" data-name="Path 202" d="M435.477,447.2a2.277,2.277,0,1,1-2.277,2.277,2.278,2.278,0,0,1,2.277-2.277h0" transform="translate(-397.237 -392.592)" fill="#fff"/>
      <rect id="Rectangle_47" data-name="Rectangle 47" width="73.064" height="47.919" transform="translate(2.42 2.372)" fill="#f8f8ff"/>
      <path id="Path_203" data-name="Path 203" d="M368.939,342.3a1.139,1.139,0,1,1-1.139,1.139,1.155,1.155,0,0,1,1.139-1.139h0" transform="translate(-362.866 -337.461)" fill="#fa5f5d"/>
      <path id="Path_204" data-name="Path 204" d="M377.139,342.3A1.139,1.139,0,1,1,376,343.439a1.155,1.155,0,0,1,1.139-1.139h0" transform="translate(-367.175 -337.461)" fill="#fdbc4e"/>
      <path id="Path_205" data-name="Path 205" d="M385.739,342.3a1.139,1.139,0,1,1-1.139,1.139,1.155,1.155,0,0,1,1.139-1.139h0" transform="translate(-371.695 -337.461)" fill="#37cd58"/>
      <path id="Path_206" data-name="Path 206" d="M402.105,356.323a1.115,1.115,0,0,1-1.186,1.044h-14c-.712,0-1.423-.474-1.423-1.044v-2.135c0-.569.664-1.091,1.423-1.091h13.949a1.159,1.159,0,0,1,1.233,1.044v2.182Z" transform="translate(-372.168 -343.133)" fill="url(#linear-gradient)"/>
      <path id="Path_207" data-name="Path 207" d="M435.791,376.768a1.216,1.216,0,0,1-1.281,1.139H386.923a1.365,1.365,0,0,1-1.423-1.139V366.235a1.365,1.365,0,0,1,1.423-1.139H434.51a1.216,1.216,0,0,1,1.281,1.139h0Z" transform="translate(-372.168 -349.44)" fill="url(#linear-gradient-2)"/>
      <path id="Path_208" data-name="Path 208" d="M401.157,401.023a1.154,1.154,0,0,1-1.139,1.139H386.923a1.332,1.332,0,0,1-1.423-1.139v-5.788a1.365,1.365,0,0,1,1.423-1.139h13a1.164,1.164,0,0,1,1.234,1.091h0v5.836Z" transform="translate(-372.168 -364.681)" fill="url(#linear-gradient-3)"/>
      <path id="Path_209" data-name="Path 209" d="M437.157,401.023a1.155,1.155,0,0,1-1.139,1.139H422.923a1.332,1.332,0,0,1-1.423-1.139v-5.788a1.365,1.365,0,0,1,1.423-1.139h13a1.164,1.164,0,0,1,1.234,1.091v5.836Z" transform="translate(-391.088 -364.681)" fill="url(#linear-gradient-3)"/>
      <path id="Path_210" data-name="Path 210" d="M474.157,401.023a1.216,1.216,0,0,1-1.281,1.139h-13a1.306,1.306,0,0,1-1.376-1.139v-5.788a1.243,1.243,0,0,1,1.376-1.139h13a1.26,1.26,0,0,1,1.328,1.139h0l-.047,5.788Z" transform="translate(-410.534 -364.681)" fill="url(#linear-gradient-5)"/>
      <path id="Path_211" data-name="Path 211" d="M437.157,414.812a.684.684,0,0,1-.522.427c-.047,0-.047,0-.095-.19H422.212c-.285.19-.712,0-.712-.237v-.19c0-.237.427-.474.712-.522H436.54a.561.561,0,0,1,.427.427c0,.047,0,.047.142.095l.047.19Z" transform="translate(-391.088 -375.196)" fill="#e9edfb"/>
      <path id="Path_212" data-name="Path 212" d="M437.157,418.764a.746.746,0,0,1-.522.474s-.047,0-.047-.19H422.212c-.285.19-.712,0-.712-.285v-.19c0-.237.427-.427.712-.474H436.54a.817.817,0,0,1,.569.474l.047.19Z" transform="translate(-391.088 -377.298)" fill="#e9edfb"/>
      <path id="Path_213" data-name="Path 213" d="M437.157,422.764a.783.783,0,0,1-.569.522v-.237H422.212a.467.467,0,0,1-.664-.142.174.174,0,0,1-.047-.142v-.19c0-.237.427-.38.712-.474H436.54a.817.817,0,0,1,.569.474Z" transform="translate(-391.088 -379.4)" fill="#e9edfb"/>
      <path id="Path_214" data-name="Path 214" d="M437.157,426.7a3.117,3.117,0,0,1-.569.807H422.212c-.285-.237-.712-.522-.712-.807v-.19c0-.237.427-.522.712-.427H436.54a.369.369,0,0,1,.427.285v.142l.142.047.047.142Z" transform="translate(-391.088 -381.482)" fill="#e9edfb"/>
      <path id="Path_215" data-name="Path 215" d="M429.186,430.717c0,.237-.142.332-.427.332h-6.595c-.285,0-.664-.095-.664-.332v-.19c0-.237.38-.427.664-.427h6.595a.425.425,0,0,1,.427.427h0Z" transform="translate(-391.088 -383.605)" fill="#e9edfb"/>
      <path id="Path_216" data-name="Path 216" d="M474.524,414.812c-.285.237-.237.427-.522.237H459.674c-.237.19-.474.047-.474-.19l.142-.047v-.19c-.142-.237.047-.474.332-.522H474c.285.095.237.285.522.522Z" transform="translate(-410.902 -375.196)" fill="#e9edfb"/>
      <path id="Path_217" data-name="Path 217" d="M474.628,418.764c-.285.237-.237.474-.522.285H459.778c-.285.19-.474,0-.332-.285v-.19c-.142-.237.047-.427.332-.474h14.328c.285.095.237.237.522.474Z" transform="translate(-411.006 -377.298)" fill="#e9edfb"/>
      <path id="Path_218" data-name="Path 218" d="M474.628,422.764c-.285.237-.237.522-.522.285H459.778c-.285.19-.474,0-.332-.285v-.19c-.142-.237.047-.38.332-.474h14.328c.285.095.237.237.522.474Z" transform="translate(-411.006 -379.4)" fill="#e9edfb"/>
      <path id="Path_219" data-name="Path 219" d="M474.6,426.7c-.285.237-.237.569-.522.807H459.753c-.285-.285-.474-.522-.332-.807v-.19a.289.289,0,0,1,0-.38.314.314,0,0,1,.285-.047h14.376c.285-.095.237.19.522.427Z" transform="translate(-410.981 -381.481)" fill="#e9edfb"/>
      <path id="Path_220" data-name="Path 220" d="M466.806,430.717c0,.237,0,.332-.237.332h-6.642c-.285,0-.427-.095-.427-.332v-.19a.425.425,0,0,1,.427-.427h6.595c.285,0,.237.19.237.427Z" transform="translate(-411.06 -383.605)" fill="#e9edfb"/>
      <path id="Path_221" data-name="Path 221" d="M400.682,414.812c.19.237.095.427-.19.237H386.117a.366.366,0,0,1-.522-.047c-.047-.047-.047-.095-.095-.19v-.19a.774.774,0,0,1,.617-.522h14.328c.285.095.38.285.19.522l.047.19Z" transform="translate(-372.168 -375.196)" fill="#e9edfb"/>
      <path id="Path_222" data-name="Path 222" d="M400.682,418.764c.19.237.095.474-.19.285H386.117c-.285.237-.522,0-.617-.285v-.19a.737.737,0,0,1,.617-.474h14.328c.285.095.38.237.19.474l.047.19Z" transform="translate(-372.168 -377.298)" fill="#e9edfb"/>
      <path id="Path_223" data-name="Path 223" d="M400.682,422.764c.19.237.095.522-.19.285H386.117c-.285.237-.522,0-.617-.285v-.19c.047-.237.332-.38.617-.474h14.328c.285.095.38.237.19.474l.047.19Z" transform="translate(-372.168 -379.4)" fill="#e9edfb"/>
      <path id="Path_224" data-name="Path 224" d="M396.412,426.079h4.08c.285-.095.38.19.19.427v.19a.579.579,0,0,1-.19.807H386.117a1.759,1.759,0,0,1-.617-.807v-.19a.536.536,0,0,1,.617-.427h10.3" transform="translate(-372.168 -381.482)" fill="#e9edfb"/>
      <path id="Path_225" data-name="Path 225" d="M393.565,430.717c0,.237-.142.332-.427.332h-7.117c-.285,0-.522-.095-.522-.332v-.19a.556.556,0,0,1,.522-.427h7.117a.418.418,0,0,1,.427.38h0v.237Z" transform="translate(-372.168 -383.605)" fill="#e9edfb"/>
    </g>
    <g id="Layer_6" transform="translate(-19.304 272.77)">
      <g id="Layer_18">
        <path id="Path_226" data-name="Path 226" d="M29.376,696.871s4.175-22.678-17.839-34.824c-21.967-12.146-23.01-12-27.375-13.379-2.515-.854-5.077.949-2.182,4.555,2.894,3.653,1.234,4.555,7.022,6.168s6.642,8.635,9.536,10.39,5.409,2.23,14.233,6.025c8.018,3.463,14.85,13.237,14.85,16.653s7.828,4.6,7.828,4.6Z" transform="translate(19.304 -613.613)" fill="url(#linear-gradient-6)"/>
        <path id="Path_227" data-name="Path 227" d="M33.038,694.135s5.6-20.875-13.664-32.167-25.952-11.149-29.795-12.525c-2.182-.807,3.8,1.945,6.31,5.266,2.515,3.369,1.9,2.609,6.4,5.077,5.219,2.894,7.4,5.693,10.485,6.263,4.46.854,3.131,5.5,10.865,8.967,6.974,3.179,7.876,11.671,7.876,14.85,0,3.226,6.832,4.27,6.832,4.27Z" transform="translate(14.883 -614.056)" fill="url(#linear-gradient-7)"/>
        <path id="Path_228" data-name="Path 228" d="M118.033,704.865l2.182-2.088a9.155,9.155,0,0,1,3.7-2.04c6.785-1.8,28.182-8.492,37.054-24.671a.262.262,0,0,0-.142-.38h-.047a.166.166,0,0,1-.095-.047c-2.942-.237-18.171-.474-38.525,16.89a6.6,6.6,0,0,0-1,1c-.522.712-1.376,1.945-1.755,2.562-.522.949.522,2.514-.9,3.89S114,704.817,114,704.817l2.515,1.85Z" transform="translate(-50.755 -627.869)" fill="url(#linear-gradient-8)"/>
        <path id="Path_229" data-name="Path 229" d="M70.452,650.762s5.836-52.236-10.106-68.652c-14.66-15.087-14.9-1.234-14.85,1.139a2,2,0,0,0,.142.569,32.938,32.938,0,0,1,3.416,21.113c-1.518,7.544,9.3,6.547,10.248,14s4.7,18.93,4.317,24.2-.427,10.39-.427,10.39l5.883.19Z" transform="translate(-14.751 -575.095)" fill="url(#linear-gradient-9)"/>
        <path id="Path_230" data-name="Path 230" d="M70.607,650.822a.893.893,0,0,0,.095-.38c.38-3.416,5.266-52.615-10.106-68.462-14.565-15.04-14.8-1.423-14.708,1.044a2.417,2.417,0,0,0,.332.806c1.091,1.566,5.883,8.4,10.153,7.639,11.814-2.088,1.376,12.1,7.781,19.689,5.124,5.978,3.416,26.664,3.036,31.977a50.485,50.485,0,0,1-1.518,8.825,1.4,1.4,0,0,0,1.091,1.613h.095c.095,0,.19.047.285.047h1.091a1.533,1.533,0,0,0,1.518-.854Z" transform="translate(-14.953 -575.013)" fill="url(#linear-gradient-10)"/>
        <path id="Path_231" data-name="Path 231" d="M105.357,682.127s1.044-14.47,9.489-23.295a17.641,17.641,0,0,1,8.635-4.839c2.515-.569,6.642-2.609,10.248-9.394,0,0,6.785-9.631,13.616-12.525,6.785-2.941,0-3.274,0-3.274s-19.452,3.7-31.93,15.087a19.762,19.762,0,0,1-2.515,1.945c-3.226,2.23-12.193,10.533-11.814,34.871Z" transform="translate(-43.963 -603.281)" fill="url(#linear-gradient-11)"/>
        <path id="Path_232" data-name="Path 232" d="M101.443,736.7s.285-1.755-2.04-1.708c-2.04.095-36.39-.19-36.39-.19s-1.613,0-1.518,1.233,5.314,29.842,5.788,30.412a1.6,1.6,0,0,0,1,.759c.664.19,24.766.047,24.766.047a1.21,1.21,0,0,0,1.044-1.091s7.4-29.13,7.354-29.463" transform="translate(-23.159 -658.99)" fill="url(#linear-gradient-12)"/>
      </g>
    </g>
    <g id="Man" transform="translate(345.299 90.806)">
      <g id="Group_4" data-name="Group 4" transform="translate(0 273.715)">
        <path id="Path_233" data-name="Path 233" d="M867.436,780.878c-1.281-5.409-1.708-12.335-2.562-12.478h-.949l-9.062.095s-1.9,8.635-2.847,12.241c-.095.237-.237.854-.427,1.281a6.456,6.456,0,0,0-.19,1.9c.19,3.274,1.471,6.073,4.365,7.544,3.274,1.613,5.741,3.179,9.062,0C868.2,788.232,868.717,786.286,867.436,780.878Z" transform="translate(-802.906 -768.4)" fill="#4b44be"/>
        <path id="Path_234" data-name="Path 234" d="M785.013,770.2l-11.482.617s-4.555,7.876-11.2,9.773c-6.263,1.8-16.605,6.168-12,8.635,3.416,1.993,25.525.19,30.886.617,4.033.332,5.124-2.135,4.7-7.544C785.63,778.218,785.013,770.2,785.013,770.2Z" transform="translate(-749.186 -769.346)" fill="#4b44be"/>
      </g>
      <path id="Path_235" data-name="Path 235" d="M786.544,468.1s-7.686,63.338-8.208,67.465,2.657,25.24,2.657,29.273,7.544,47.254,7.544,47.254l12-.522s-2.42-63.622-2.135-66.706c.237-3.084,13.379-40,13.379-40s.949,9.773.949,12.857,3.606,93.085,3.606,93.085h10.438l14.8-132.559-.237-2.562Z" transform="translate(-764.476 -336.86)" fill="url(#linear-gradient-13)"/>
      <path id="Path_236" data-name="Path 236" d="M813.765,210.2s-11.481,4.46-14.043,5.456c-2.562,1.044-4.033,4.175-4.033,4.175s-1.281-.759-1.281,1.376,1.044,7.022,1.9,8.3a73.688,73.688,0,0,1,3.7,6.5c1.044,2.23.664,6.832-.427,7.544-1.091.664-20.448,18.171-20.448,18.171L763,311.3l2.135,15.657,3.274,15.419s-.664,1.091.664,2.42c1.376,1.281,7.211,10.865,7.211,10.865l1.993-14.138-6.595-20.97-2.325-17.649,15.419-31.5,53.422,9.489,5.836,34.349-10.817,29.273-1.9,14.281,9.062-7.971a17.556,17.556,0,0,0,2.04-3.843l5.409-15.23,4.033-24.339s-33.733-60.776-35.441-64.382c-.759-1.613.095-5.551.522-7.544.427-1.8,1.281-4.128,2.135-4.792a10.2,10.2,0,0,0,2.23-5.124c0-1.281.522-6.263-.759-5.029-.237.332-1.186-1.186-1.613-3.179A14.472,14.472,0,0,0,813.765,210.2Z" transform="translate(-756.446 -201.318)" fill="url(#linear-gradient-14)"/>
      <path id="Path_237" data-name="Path 237" d="M803.184,298.828a2.123,2.123,0,0,1-2.894-.095,21.632,21.632,0,0,1-1.613-2.847c-.854-1.708-7.449-11.387-7.449-11.387s-15.656,4.033-18.171,5.646c-2.562,1.708-4.887,4.033-5.741,7.022s-12.952,38.193-13.521,40.327c-.617,2.135-3.7,5.551-2.23,14.233S761.148,382.567,762,382.8s9.489-4.033,9.489-4.033-6.832-27.565-6.832-30.317,6.168-10.533,8.635-15.846,4.27-9.916,5.124-12.241-7.354,45.831-7.354,45.831-.19,8.73,1.471,9.584c1.518.759,19.927,7.781,24.244,9.441a.992.992,0,0,0,1.186-.522h0l2.752-7.781c0-.095.095-.19.19-.095a.093.093,0,0,1,.095.095l2.562,8.492a.956.956,0,0,0,1.044.617l22.678-4.887s-.332-41.846.095-48.867c.332-6.832-.522-10.722.759-8.825,1.376,2.04,7.117,20.875,7.117,24.054s-6.4,30.981-6.4,30.981l8.492,4.7s11.482-30.554,12.051-34.587c.617-4.033.854-6.168-1.044-10.2s-12.336-40.565-12.336-40.565-1.044-4.46-8.73-6.784-13.427-5.741-14.8-5.646-5.646,8.113-7.544,10.533C804.038,296.836,804.227,297.262,803.184,298.828Z" transform="translate(-750.229 -240.367)" fill="url(#linear-gradient-15)"/>
      <path id="Path_238" data-name="Path 238" d="M846.086,200.408s-12.952,4.7-15.562,6.69a6.467,6.467,0,0,0-2.42,2.847s-1.376-.617-1.281,1.376-1.518-3.084-1.993-4.7a10.775,10.775,0,0,1,3.084-9.489c3.511-3.321,7.354-5.836,10.627-5.646a12.184,12.184,0,0,1,8.493,3.606c2.562,2.467,3.179,2.325,3.7,2.562a10.33,10.33,0,0,1,3.511,6.168,30.917,30.917,0,0,1-.617,7.639,1,1,0,0,0-1.281-.19c-.664.474-.854-2.894-3.084-7.117C847.652,201.025,846.086,200.408,846.086,200.408Z" transform="translate(-788.862 -191.479)" fill="url(#linear-gradient-16)"/>
      <path id="Path_239" data-name="Path 239" d="M824.185,531.9c-1.471,4.27-7.212,12.668-10.96,17.744-3.748,5.029-15.325,15.656-14.565,28.609s8.54,46.258,8.54,49.247-2.894,17.127-5.124,21.492-3.274,12.146-2.135,12.146a32.032,32.032,0,0,0,6.263-.854,52.951,52.951,0,0,0,5.551-1.471c.759-.332.949-2.847.949-2.847a9.486,9.486,0,0,0-.332-3.084A30.532,30.532,0,0,1,811.186,648c-.427-12.146-1.518-40.327-1.281-42.32.427-3.7-2.562-22.251.19-31.408C812.8,565.158,824.185,531.9,824.185,531.9Z" transform="translate(-775.169 -370.39)" opacity="0.07"/>
      <path id="Path_240" data-name="Path 240" d="M791.793,483.2,789.8,498.43s1.993,3.179,2.562.522c.617-2.657,4.7-7.639,2.135-11.2S791.793,483.2,791.793,483.2Z" transform="translate(-770.531 -344.796)" opacity="0.07"/>
      <path id="Path_241" data-name="Path 241" d="M903.674,492.1l-.664,7.259-.854,7.022s-2.894,2.135-2.847-.617c.095-2.752-4.887-6.832-1.091-9.584S903.674,492.1,903.674,492.1Z" transform="translate(-826.761 -349.473)" opacity="0.07"/>
      <path id="Path_242" data-name="Path 242" d="M834.374,273.4c.522-.095-2.467.664.19-.19,4.555-1.471,2.657-10.011,2.657-10.011s.427,3.179,4.7,4.46,5.409.332-1.044,3.321c-6.405,2.989-3.084,4.033-2.657,7.971" transform="translate(-793.47 -229.173)" opacity="0.07"/>
      <path id="Path_243" data-name="Path 243" d="M800.311,355,793.1,398.649s.095,7.781,1.471,8.919c1.376,1.091,5.978,1.9,7.022,2.657s12.146,4.46,9.252-1.8c-.664-1.376-15.657-9.773-8.967-18.6s5.456-20.97,2.325-29.463A38.1,38.1,0,0,1,801.64,344.8Z" transform="translate(-772.266 -272.058)" opacity="0.07"/>
    </g>
  </g>
</svg>
