<?xml version="1.0" encoding="utf-8"?>
<!-- Generator: Adobe Illustrator 23.1.1, SVG Export Plug-In . SVG Version: 6.00 Build 0)  -->
<svg version="1.1" id="Layer_1" xmlns="http://www.w3.org/2000/svg" xmlns:xlink="http://www.w3.org/1999/xlink" x="0px" y="0px"
	 viewBox="0 0 287.17 384.15" style="enable-background:new 0 0 287.17 384.15;" xml:space="preserve">
<style type="text/css">
	.st0{fill:url(#Path_248_2_);}
	.st1{fill:url(#Path_249_2_);}
	.st2{fill:url(#Path_250_2_);}
	.st3{fill:url(#Path_251_2_);}
	.st4{fill:url(#Path_252_2_);}
	.st5{fill:url(#Path_253_2_);}
	.st6{fill:url(#Path_254_2_);}
	.st7{fill:#4B44BE;}
	.st8{fill:url(#Path_308_2_);}
	.st9{fill:url(#Path_309_2_);}
	.st10{fill:url(#Path_310_2_);}
	.st11{opacity:0.1;enable-background:new    ;}
	.st12{clip-path:url(#SVGID_2_);}
	.st13{fill:url(#Rectangle_97_2_);}
	.st14{opacity:0.07;enable-background:new    ;}
	.st15{opacity:0.07;}
	.st16{clip-path:url(#SVGID_4_);}
	.st17{clip-path:url(#SVGID_6_);}
	.st18{fill:#FFFFFF;}
	.st19{clip-path:url(#SVGID_8_);}
	.st20{fill:url(#Rectangle_102_2_);}
</style>
<g id="Layer_18_1_" transform="translate(-4574.016 9678.795)">
	
		<linearGradient id="Path_248_2_" gradientUnits="userSpaceOnUse" x1="1948.4115" y1="-8389.7412" x2="1949.4115" y2="-8389.7412" gradientTransform="matrix(67.3581 0 0 -59.7829 -126139.6562 -511056.4062)">
		<stop  offset="0" style="stop-color:#93FD93"/>
		<stop  offset="0.51" style="stop-color:#21C2C1"/>
		<stop  offset="1" style="stop-color:#84F599"/>
	</linearGradient>
	<path id="Path_248_1_" class="st0" d="M4785.51-9463.76c0,0,5.12-27.9-21.9-42.84c-27.02-14.94-28.3-14.76-33.64-16.47
		c-3.07-1.05-6.22,1.14-2.67,5.61c3.55,4.47,1.53,5.61,8.63,7.58c7.1,1.97,8.19,10.64,11.74,12.79c3.55,2.15,6.66,2.72,17.52,7.4
		c9.85,4.25,18.27,16.25,18.27,20.5s9.64,5.65,9.64,5.65L4785.51-9463.76z"/>
	
		<linearGradient id="Path_249_2_" gradientUnits="userSpaceOnUse" x1="1950.2577" y1="-8386.4854" x2="1950.8896" y2="-8385.6357" gradientTransform="matrix(60.5357 0 0 -55.1827 -113093.3594 -472536.4375)">
		<stop  offset="0" style="stop-color:#93FD93"/>
		<stop  offset="0.51" style="stop-color:#21C2C1"/>
		<stop  offset="1" style="stop-color:#84F599"/>
	</linearGradient>
	<path id="Path_249_1_" class="st1" d="M4784.54-9467.66c0,0,6.88-25.67-16.78-39.55c-23.65-13.88-31.93-13.71-36.62-15.37
		c-2.67-0.96,4.69,2.37,7.75,6.48c3.07,4.12,2.32,3.2,7.88,6.26c6.44,3.55,9.11,7.01,12.88,7.71c5.48,1.05,3.85,6.75,13.36,11.04
		c8.58,3.9,9.68,14.32,9.68,18.26s8.41,5.26,8.41,5.26L4784.54-9467.66z"/>
	
		<linearGradient id="Path_250_2_" gradientUnits="userSpaceOnUse" x1="1948.4091" y1="-8398.4834" x2="1949.321" y2="-8399.5488" gradientTransform="matrix(57.7174 0 0 -38.2125 -107633.2344 -330423.125)">
		<stop  offset="0" style="stop-color:#93FD93"/>
		<stop  offset="0.51" style="stop-color:#21C2C1"/>
		<stop  offset="1" style="stop-color:#84F599"/>
	</linearGradient>
	<path id="Path_250_1_" class="st2" d="M4808.37-9471.42l2.67-2.54c1.29-1.2,2.85-2.06,4.56-2.5c8.37-2.19,34.65-10.42,45.55-30.31
		c0.08-0.18,0-0.39-0.18-0.48h-0.04c-0.04,0-0.09-0.04-0.13-0.04c-3.64-0.26-22.34-0.57-47.35,20.76c-0.45,0.36-0.86,0.77-1.23,1.23
		c-0.61,0.88-1.66,2.37-2.15,3.15c-0.66,1.14,0.66,3.07-1.09,4.77s-5.52,5.96-5.52,5.96l3.07,2.28L4808.37-9471.42z"/>
	
		<linearGradient id="Path_251_2_" gradientUnits="userSpaceOnUse" x1="1989.3367" y1="-8378.9609" x2="1987.9218" y2="-8379.5547" gradientTransform="matrix(31.9453 0 0 -96.5295 -58408.1758 -818793.375)">
		<stop  offset="0" style="stop-color:#93FD93"/>
		<stop  offset="0.51" style="stop-color:#21C2C1"/>
		<stop  offset="1" style="stop-color:#84F599"/>
	</linearGradient>
	<path id="Path_251_1_" class="st3" d="M4794.13-9473.09c0,0,7.18-64.21-12.4-84.4c-18.04-18.57-18.3-1.49-18.26,1.4
		c0.01,0.24,0.07,0.48,0.18,0.7c4.25,7.93,5.73,17.06,4.2,25.93c-1.84,9.29,11.43,8.06,12.57,17.21s5.78,23.26,5.3,29.74
		c-0.48,6.48-0.53,12.79-0.53,12.79l7.23,0.22L4794.13-9473.09z"/>
	
		<linearGradient id="Path_252_2_" gradientUnits="userSpaceOnUse" x1="1989.6228" y1="-8383.71" x2="1990.6228" y2="-8383.71" gradientTransform="matrix(31.7967 0 0 -96.5621 -58123.8555 -819066.625)">
		<stop  offset="0" style="stop-color:#93FD93"/>
		<stop  offset="0.51" style="stop-color:#21C2C1"/>
		<stop  offset="1" style="stop-color:#84F599"/>
	</linearGradient>
	<path id="Path_252_1_" class="st4" d="M4794.05-9472.88c0.04-0.13,0.09-0.31,0.13-0.44c0.44-4.2,6.48-64.69-12.44-84.18
		c-17.91-18.48-18.18-1.75-18.09,1.27c0.07,0.36,0.2,0.7,0.39,1.01c1.31,1.93,7.23,10.34,12.48,9.37
		c14.5-2.58,1.71,14.85,9.59,24.18c6.31,7.36,4.2,32.76,3.72,39.29c-0.31,3.67-0.92,7.3-1.84,10.86c-0.17,0.91,0.41,1.78,1.31,1.97
		h0.13c0.13,0,0.22,0.04,0.35,0.04h1.31c0.77,0.06,1.5-0.36,1.84-1.05L4794.05-9472.88z"/>
	
		<linearGradient id="Path_253_2_" gradientUnits="userSpaceOnUse" x1="1947.5253" y1="-8389.2402" x2="1948.0942" y2="-8389.999" gradientTransform="matrix(60.5444 0 0 -65.569 -113044.8438 -559517.25)">
		<stop  offset="0" style="stop-color:#93FD93"/>
		<stop  offset="0.51" style="stop-color:#21C2C1"/>
		<stop  offset="1" style="stop-color:#84F599"/>
	</linearGradient>
	<path id="Path_253_1_" class="st5" d="M4801.1-9469.15c0,0,1.27-17.78,11.65-28.64c2.88-2.97,6.56-5.04,10.6-5.96
		c3.11-0.7,8.19-3.2,12.61-11.52c0,0,8.37-11.83,16.73-15.42c8.37-3.59,0-4.03,0-4.03s-23.92,4.55-39.25,18.57
		c-0.95,0.89-1.98,1.69-3.07,2.41c-3.99,2.72-14.98,12.96-14.5,42.88L4801.1-9469.15z"/>
	
		<linearGradient id="Path_254_2_" gradientUnits="userSpaceOnUse" x1="1962.1364" y1="-8397.6172" x2="1963.1364" y2="-8397.6172" gradientTransform="matrix(49.0798 0 0 -39.9242 -91152.6094 -344721.0625)">
		<stop  offset="0" style="stop-color:#E5A4ED"/>
		<stop  offset="1" style="stop-color:#7A5BF5"/>
	</linearGradient>
	<path id="Path_254_1_" class="st6" d="M4821.86-9470.6c0,0,0.35-2.15-2.5-2.1c-2.5,0.09-44.72-0.22-44.72-0.22s-1.97,0-1.84,1.49
		c0.13,1.49,6.53,36.66,7.14,37.4c0.27,0.46,0.71,0.79,1.23,0.92c0.79,0.22,30.44,0.04,30.44,0.04c0.7-0.09,1.23-0.66,1.27-1.36
		C4812.83-9434.37,4821.94-9470.16,4821.86-9470.6"/>
</g>
<g id="Group_43_1_">
	<path id="Path_306_1_" class="st7" d="M130.85,341.02l-13.38,0.12c0,0-5.8,10.49-8.68,16.1c-0.18,0.36-0.7,1.26-1.06,1.91
		c-0.45,0.98-0.78,2.01-1,3.06c-1.06,5.49-0.39,10.5,3.26,14c4,3.83,7,7.19,13.24,3.24s7.87-7,8-16.45s-0.33-22-0.33-22"/>
	<path id="Path_307_1_" class="st7" d="M62.72,341.71l-12.21,5.45c0,0-1.13,11.94-1.52,18.23c0,0.41-0.14,1.44-0.21,2.18
		c-0.02,1.08,0.07,2.15,0.29,3.21c1.22,5.45,3.84,9.78,8.58,11.52c5.2,1.9,9.3,3.78,13.43-2.33s4.4-9.59,0.73-18.27
		s-9.09-20-9.09-20"/>
</g>
<linearGradient id="Path_308_2_" gradientUnits="userSpaceOnUse" x1="-2740.8057" y1="1284.6975" x2="-2738.9685" y2="1284.6975" gradientTransform="matrix(49.4437 0 0 -46.8839 129592.3047 60255.0234)">
	<stop  offset="0" style="stop-color:#4B45BD"/>
	<stop  offset="1" style="stop-color:#58CAEA"/>
</linearGradient>
<path id="Path_308_1_" class="st8" d="M65.67,46.88l38.32-7.35c0,0,3.2-16,2.24-18.84s-1.86-9.09-7.29-11S86.21-7.5,68,4.64
	s-8.39,26.6-8.39,26.6L65.67,46.88z"/>
<linearGradient id="Path_309_2_" gradientUnits="userSpaceOnUse" x1="-2630.6423" y1="1295.4445" x2="-2629.6423" y2="1295.4445" gradientTransform="matrix(66.21 0 0 -100.24 174226.7812 129920.2969)">
	<stop  offset="0" style="stop-color:#F87B58"/>
	<stop  offset="0.41" style="stop-color:#F89453"/>
	<stop  offset="0.71" style="stop-color:#F8C548"/>
	<stop  offset="1" style="stop-color:#F89C51"/>
</linearGradient>
<path id="Path_309_1_" class="st9" d="M92.73,14.83c0,0-19.09,7.37-23.43,9.18s-6.69,7.05-6.69,7.05s-2.14-1.27-2.14,2.35
	s1.78,11.77,3.07,13.85c2.23,3.52,4.26,7.16,6.08,10.9c1.76,3.73,1.37,9.35,0.95,11.42c-0.8,3.9-18.69,31.21-18.69,31.21l6.63,7.73
	l7.42,6.55l52.16-4c0,0-18.16-35.56-21-41.56c-1.28-2.69,0.08-9.22,0.83-12.55c0.68-3.05,2.17-6.88,3.62-8s4-6.15,4-8.33
	s0.42-9.07-1.45-7.24c-0.5,0.49-3-3.41-3.71-6.67C99.16,22.05,96.48,17.88,92.73,14.83z"/>
<linearGradient id="Path_310_2_" gradientUnits="userSpaceOnUse" x1="-2649.4043" y1="1298.6133" x2="-2648.6272" y2="1298.6133" gradientTransform="matrix(162.5933 0 0 -150.8621 430791.8125 196183.3438)">
	<stop  offset="0" style="stop-color:#4B45BD"/>
	<stop  offset="1" style="stop-color:#58CAEA"/>
</linearGradient>
<path id="Path_310_1_" class="st10" d="M16.72,210.66c0,0-15.8,14.18-15.8,20.17s2.72,21.8,7.9,31.07s37,79.74,40.83,85.17
	c0.66,0.94,14.27-2.84,14.27-2.84s-6.31-28.91-7.4-35.45s-16.85-45.24-16.85-49.06s2.72-9.27,11.45-10.9s27.25-3.82,33.79-1.64
	s34.76,1.9,39.76,8.18c3.17,4.05,0,8.65-3.27,24s-1.09,36.55-3.81,43.1s-2.54,20.65-1.2,20.74c3.65,0.23,13.53,1.07,14.56,0.34
	c1.81-1.29,12.27-24.65,14.07-28.62c2.84-6.24,11.81-40.43,12.9-49.15s6.54-24.53,5.45-28.89s-25.07-31.07-43.06-34.89
	s-73.59-8.17-80.13-3.81S16.72,210.66,16.72,210.66z"/>
<path id="Path_311_1_" class="st11" d="M62.29,336.72c0,0-4.95-24.46-6.36-30.29c-1.61-6.65-14.41-36.65-16.31-46.71
	c-1.84-9.69-7.35,3.53-5.71,12.8s10.9,26.16,11.44,34.34S62.29,336.72,62.29,336.72z"/>
<g>
	<defs>
		<path id="SVGID_1_" d="M112.32,72.56c-8,0.87-11.48,1.67-12.73,2.06c-1.38,2.63-2.93,5.16-4.63,7.59
			c-4.15,5.37-6.13,12.18-8.72,12.38c-3.38,0.26-11.19-11.79-15.21-14.66c-2.6-1.86-2.87-2.65-4.31-3.29L43.98,77.7
			c-3.83,0.35-7.3,2.41-9.45,5.6c-10.43,15.64-33.8,62-34.52,73.46c-0.52,8.36,18.42,21.18,23.73,22.46
			c2.16,0.52,5.94-20.06,7.2-21.9L23,154.86c2.68-5.89,5.81-11.58,9.34-17c1-1.48,10.15-15.63,11.21-20.41
			c0.54,4.67,0.76,9.37,0.67,14.07c-0.23,5.72,1.14,11.81,1.14,16.05s2.93,17.78-0.17,25.41s-7.63,25.29-7.63,25.29l78.27-0.42
			c0,0,3.59-29,4.72-40.55c-0.29-3.54-0.37-7.1-0.24-10.65c0.3-14.37,0.4-30.46-0.22-33c-1-4.06,22.34,27.81,27.57,36.53
			c2.17,3.62-27.6,10-30.06,12.82s2.51,10.8,2.51,10.8s51.95-6.32,51.64-14.27s-27.84-68.28-39.38-78.79
			c-7.17-6.54-5.32-4.55-9.7-6.47c-2.51-1.09-2.18-1.17-7.24-1.56"/>
	</defs>
	<clipPath id="SVGID_2_">
		<use xlink:href="#SVGID_1_"  style="overflow:visible;"/>
	</clipPath>
	<g id="Group_44_1_" class="st12">
		
			<linearGradient id="Rectangle_97_2_" gradientUnits="userSpaceOnUse" x1="-2650.354" y1="1296.9802" x2="-2649.5161" y2="1297.7601" gradientTransform="matrix(172.57 0 0 -128.9 457352.8125 167387.2188)">
			<stop  offset="0" style="stop-color:#E5A4ED"/>
			<stop  offset="1" style="stop-color:#7A5BF5"/>
		</linearGradient>
		<rect id="Rectangle_97_1_" x="-0.51" y="69.33" class="st13" width="172.57" height="128.9"/>
	</g>
</g>
<path id="Path_313_1_" class="st14" d="M70.34,75.81c-0.92-1.21-3.58,0.64-1.18-3c4-6.09,0.45-15.41,0.45-15.41s2,4.24,9,3.67
	s8.19-2.63,0.48,5.52s-9.94,7.9-8.77,9.26"/>
<g id="Group_49_1_">
	<g id="Group_46_1_" class="st15">
		<g>
			<defs>
				<rect id="SVGID_3_" x="8.68" y="215.92" width="135.66" height="40.31"/>
			</defs>
			<clipPath id="SVGID_4_">
				<use xlink:href="#SVGID_3_"  style="overflow:visible;"/>
			</clipPath>
			<g id="Group_45_1_" class="st16">
				<path id="Path_314_1_" d="M24.08,216.21l109.59-1.71c0,0-23,11.9-19.61,18.23c4.45,8.34-4.48,17.68-17.06,16.14
					c-10.64-1.3-12.84-3.48-19.44-2.92c-17.11,1.45-28.87,0.45-30.57-2.15c-14.11-21.67-22.88-27.59-22.88-27.59"/>
			</g>
		</g>
	</g>
	<g id="Group_48_1_" class="st15">
		<g>
			<defs>
				<rect id="SVGID_5_" x="42.44" y="83.68" width="25.81" height="67.71"/>
			</defs>
			<clipPath id="SVGID_6_">
				<use xlink:href="#SVGID_5_"  style="overflow:visible;"/>
			</clipPath>
			<g id="Group_47_1_" class="st17">
				<path id="Path_315_1_" d="M49.87,114.41c1.88,3.38,3.69,5.26,2.58,8.18c-2.19,5.76-2.7,12.58,4.1,18.05
					c4.59,3.69,3.77,9.55,7.26,9.6c2.7,1.59-5.22,1.12-5.22,1.12h-7.92l-5-0.28c0.06-1.11-1.51-15.81-1.44-17.82
					c0.25-7.08,0.39-11.23-0.18-14.33c-1-5.24-0.71-3.27,1.55-6.94c0.83-1.33,3.34,1.21,4.3,2.43"/>
			</g>
		</g>
	</g>
</g>
<g>
	<g id="Group_50_1_">
		<path id="Path_316_1_" class="st18" d="M20.58,156.54c0,0-0.08-4.77,4.62-5s104.6-0.08,104.6-0.08s4.39,0.52,4.54,4.1
			s0.15,56.32,0.15,56.32c0.05,2.25-1.73,4.12-3.99,4.17c-0.09,0-0.18,0-0.26,0c-4.32,0.08-106.16,0.15-106.16,0.15
			s-3.8-1-3.73-4.77S20.58,156.53,20.58,156.54"/>
	</g>
</g>
<g>
	<defs>
		<path id="SVGID_7_" d="M73.51,183.82c0.01,2.38,1.94,4.31,4.32,4.3c2.38-0.01,4.31-1.94,4.3-4.32c-0.01-2.38-1.94-4.31-4.32-4.3
			c-1.14,0-2.24,0.46-3.04,1.27C73.96,181.58,73.51,182.68,73.51,183.82"/>
	</defs>
	<clipPath id="SVGID_8_">
		<use xlink:href="#SVGID_7_"  style="overflow:visible;"/>
	</clipPath>
	<g id="Group_51_1_" class="st19">
		
			<linearGradient id="Rectangle_102_2_" gradientUnits="userSpaceOnUse" x1="-2515.0083" y1="1195.2001" x2="-2514.9343" y2="1195.2001" gradientTransform="matrix(8.63 0 0 -8.63 20944.3145 10498.3955)">
			<stop  offset="0" style="stop-color:#59C2E9"/>
			<stop  offset="1" style="stop-color:#5BD3EF"/>
		</linearGradient>
		<rect id="Rectangle_102_1_" x="73.51" y="179.5" class="st20" width="8.63" height="8.63"/>
	</g>
</g>
</svg>
