<svg xmlns="http://www.w3.org/2000/svg" xmlns:xlink="http://www.w3.org/1999/xlink" width="1920" height="2160" viewBox="0 0 1920 2160">
  <defs>
    <linearGradient id="linear-gradient" x1="0.5" y1="0.186" x2="0.5" y2="0.804" gradientUnits="objectBoundingBox">
      <stop offset="0" stop-color="#06b4de"/>
      <stop offset="0.999" stop-color="#086dce"/>
    </linearGradient>
    <linearGradient id="linear-gradient-2" x1="1" y1="1" x2="0" gradientUnits="objectBoundingBox">
      <stop offset="0" stop-color="#098eb6"/>
      <stop offset="1" stop-color="#0f2d79"/>
    </linearGradient>
    <linearGradient id="linear-gradient-3" x1="0.827" y1="0.098" x2="0.255" y2="0.937" gradientUnits="objectBoundingBox">
      <stop offset="0" stop-color="#0d4d91" stop-opacity="0.608"/>
      <stop offset="1" stop-color="#0989be" stop-opacity="0.012"/>
    </linearGradient>
    <linearGradient id="linear-gradient-4" x1="0.046" y1="5.619" x2="1.015" y2="4.755" gradientUnits="objectBoundingBox">
      <stop offset="0" stop-color="#fff" stop-opacity="0"/>
      <stop offset="0.512" stop-color="#fff"/>
      <stop offset="1" stop-color="#fff" stop-opacity="0"/>
    </linearGradient>
    <linearGradient id="linear-gradient-5" x1="0.174" y1="5.336" x2="0.869" y2="5.319" xlink:href="#linear-gradient-4"/>
    <linearGradient id="linear-gradient-6" x1="0.051" y1="6.028" x2="0.798" y2="5.948" xlink:href="#linear-gradient-4"/>
    <linearGradient id="linear-gradient-7" x1="0.15" y1="5.792" x2="0.995" y2="7.904" xlink:href="#linear-gradient-4"/>
    <linearGradient id="linear-gradient-8" x1="0.205" y1="5.497" x2="0.884" y2="5.352" xlink:href="#linear-gradient-4"/>
    <linearGradient id="linear-gradient-9" x1="0.078" y1="5.633" x2="0.81" y2="3.734" xlink:href="#linear-gradient-4"/>
    <linearGradient id="linear-gradient-10" x1="0.08" y1="5.881" x2="0.977" y2="7.019" xlink:href="#linear-gradient-4"/>
    <linearGradient id="linear-gradient-11" x1="0.129" y1="7.557" x2="0.712" y2="7.067" xlink:href="#linear-gradient-4"/>
    <linearGradient id="linear-gradient-12" x1="0.224" y1="5.166" x2="0.875" y2="4.717" xlink:href="#linear-gradient-4"/>
    <linearGradient id="linear-gradient-13" x1="0.154" y1="3.766" x2="0.925" y2="3.928" xlink:href="#linear-gradient-4"/>
    <linearGradient id="linear-gradient-14" x1="0.5" y1="-0.435" x2="0.5" y2="-0.442" gradientUnits="objectBoundingBox">
      <stop offset="0" stop-color="#fff" stop-opacity="0.396"/>
      <stop offset="0.388" stop-color="#fff" stop-opacity="0.494"/>
      <stop offset="0.685" stop-color="#fff" stop-opacity="0.871"/>
      <stop offset="1" stop-color="#fff" stop-opacity="0.898"/>
    </linearGradient>
    <linearGradient id="linear-gradient-15" x1="0.5" y1="-0.435" x2="0.5" y2="-0.442" gradientUnits="objectBoundingBox">
      <stop offset="0.388" stop-color="#fff" stop-opacity="0.302"/>
      <stop offset="0.685" stop-color="#fff" stop-opacity="0.8"/>
    </linearGradient>
    <linearGradient id="linear-gradient-16" x1="-0.415" y1="-0.621" x2="0.858" y2="0.813" gradientUnits="objectBoundingBox">
      <stop offset="0" stop-color="#b1dbff" stop-opacity="0.435"/>
      <stop offset="1" stop-color="#74caff" stop-opacity="0.537"/>
    </linearGradient>
    <filter id="Union_1" x="1156.235" y="340.333" width="82.831" height="220.242" filterUnits="userSpaceOnUse">
      <feOffset dx="-1" dy="1" input="SourceAlpha"/>
      <feGaussianBlur stdDeviation="1.5" result="blur"/>
      <feFlood flood-opacity="0.102"/>
      <feComposite operator="in" in2="blur"/>
      <feComposite in="SourceGraphic"/>
    </filter>
    <filter id="Helvetica" x="1172.303" y="365.5" width="33" height="120" filterUnits="userSpaceOnUse">
      <feOffset dy="1" input="SourceAlpha"/>
      <feGaussianBlur stdDeviation="1.5" result="blur-2"/>
      <feFlood flood-opacity="0.161"/>
      <feComposite operator="in" in2="blur-2"/>
      <feComposite in="SourceGraphic"/>
    </filter>
    <filter id="Helvetica-2" x="1199.158" y="365.5" width="25" height="79" filterUnits="userSpaceOnUse">
      <feOffset dy="1" input="SourceAlpha"/>
      <feGaussianBlur stdDeviation="1.5" result="blur-3"/>
      <feFlood flood-opacity="0.161"/>
      <feComposite operator="in" in2="blur-3"/>
      <feComposite in="SourceGraphic"/>
    </filter>
    <filter id="Union_1-2" x="1265.818" y="311.266" width="82.905" height="299.566" filterUnits="userSpaceOnUse">
      <feOffset dx="-1" dy="1" input="SourceAlpha"/>
      <feGaussianBlur stdDeviation="1.5" result="blur-4"/>
      <feFlood flood-opacity="0.09"/>
      <feComposite operator="in" in2="blur-4"/>
      <feComposite in="SourceGraphic"/>
    </filter>
    <filter id="Path_42626" x="1291.041" y="339.773" width="36.936" height="36.935" filterUnits="userSpaceOnUse">
      <feOffset dy="1" input="SourceAlpha"/>
      <feGaussianBlur stdDeviation="1.5" result="blur-5"/>
      <feFlood flood-opacity="0.161"/>
      <feComposite operator="in" in2="blur-5"/>
      <feComposite in="SourceGraphic"/>
    </filter>
    <filter id="Path_42631" x="1291.841" y="394.251" width="32.563" height="41.046" filterUnits="userSpaceOnUse">
      <feOffset dy="1" input="SourceAlpha"/>
      <feGaussianBlur stdDeviation="1.5" result="blur-6"/>
      <feFlood flood-opacity="0.161"/>
      <feComposite operator="in" in2="blur-6"/>
      <feComposite in="SourceGraphic"/>
    </filter>
    <filter id="Path_14079" x="1291.041" y="505.788" width="34.636" height="41.06" filterUnits="userSpaceOnUse">
      <feOffset dy="1" input="SourceAlpha"/>
      <feGaussianBlur stdDeviation="1.5" result="blur-7"/>
      <feFlood flood-opacity="0.161"/>
      <feComposite operator="in" in2="blur-7"/>
      <feComposite in="SourceGraphic"/>
    </filter>
    <filter id="Path_42635" x="1287.836" y="454.336" width="41.046" height="33.018" filterUnits="userSpaceOnUse">
      <feOffset dy="1" input="SourceAlpha"/>
      <feGaussianBlur stdDeviation="1.5" result="blur-8"/>
      <feFlood flood-opacity="0.161"/>
      <feComposite operator="in" in2="blur-8"/>
      <feComposite in="SourceGraphic"/>
    </filter>
    <linearGradient id="linear-gradient-17" y1="-0.369" x2="0.645" y2="0.815" gradientUnits="objectBoundingBox">
      <stop offset="0" stop-color="#77e5ff"/>
      <stop offset="1" stop-color="#53d8f8"/>
    </linearGradient>
    <filter id="Path_42640" x="516.99" y="557.683" width="122.463" height="62.85" filterUnits="userSpaceOnUse">
      <feOffset dx="1" dy="2" input="SourceAlpha"/>
      <feGaussianBlur stdDeviation="5" result="blur-9"/>
      <feFlood flood-opacity="0.059"/>
      <feComposite operator="in" in2="blur-9"/>
      <feComposite in="SourceGraphic"/>
    </filter>
    <linearGradient id="linear-gradient-18" x1="-0.09" x2="1.379" y2="1" gradientUnits="objectBoundingBox">
      <stop offset="0" stop-color="#ffefb5"/>
      <stop offset="0.438" stop-color="#ffeca7"/>
      <stop offset="1" stop-color="#ffe686"/>
    </linearGradient>
    <filter id="Path_42639" x="619.282" y="530.34" width="393.022" height="43.773" filterUnits="userSpaceOnUse">
      <feOffset dy="2" input="SourceAlpha"/>
      <feGaussianBlur stdDeviation="3" result="blur-10"/>
      <feFlood flood-opacity="0.043"/>
      <feComposite operator="in" in2="blur-10"/>
      <feComposite in="SourceGraphic"/>
    </filter>
    <clipPath id="clip-Landing_-_Empowering_and_Engaging_Default_">
      <rect width="1920" height="2160"/>
    </clipPath>
  </defs>
  <g id="Landing_-_Empowering_and_Engaging_Default_" data-name="Landing - Empowering and Engaging (Default)" clip-path="url(#clip-Landing_-_Empowering_and_Engaging_Default_)">
    <rect width="1920" height="2160" fill="#fff"/>
    <rect id="Rectangle_19520" data-name="Rectangle 19520" width="399" height="79" transform="translate(336 1484)" fill="none"/>
    <rect id="Rectangle_19521" data-name="Rectangle 19521" width="399" height="79" transform="translate(336 1564)" fill="none"/>
    <rect id="Rectangle_19524" data-name="Rectangle 19524" width="399" height="79" transform="translate(336 1804)" fill="none"/>
    <rect id="Rectangle_19523" data-name="Rectangle 19523" width="399" height="79" transform="translate(336 1724)" fill="none"/>
    <rect id="Rectangle_19522" data-name="Rectangle 19522" width="399" height="79" transform="translate(336 1644)" fill="none"/>
    <rect id="Rectangle_19591" data-name="Rectangle 19591" width="399" height="79" transform="translate(336 1484)" fill="none"/>
    <rect id="Rectangle_19592" data-name="Rectangle 19592" width="399" height="79" transform="translate(336 1565)" fill="none"/>
    <rect id="Rectangle_19593" data-name="Rectangle 19593" width="399" height="79" transform="translate(336 1644)" fill="none"/>
    <rect id="Rectangle_19594" data-name="Rectangle 19594" width="399" height="79" transform="translate(336 1724)" fill="none"/>
    <rect id="Rectangle_19595" data-name="Rectangle 19595" width="399" height="79" transform="translate(336 1802)" fill="none"/>
    <rect id="Rectangle_19497" data-name="Rectangle 19497" width="399" height="79" transform="translate(336 1404)" fill="#f0fcff"/>
    <path id="Path_42720" data-name="Path 42720" d="M-106.448,0h140V1920h-140V0Z" transform="translate(0 2053.524) rotate(-90)" fill="#f7f7f9"/>
    <text id="Made_with_by_EXOS_User_Experience" data-name="Made with 💙 by EXOS User Experience" transform="translate(801 2082)" fill="#0a3645" font-size="16" font-family="Helvetica-Bold, Helvetica" font-weight="700" letter-spacing="0.025em"><tspan x="0" y="0">Made with </tspan><tspan y="0" font-family="AppleColorEmoji, Apple Color Emoji" font-weight="400">💙</tspan><tspan y="0" xml:space="preserve"> by EXOS User Experience</tspan></text>
    <text id="_2020_ServiceLink_All_rights_reserved." data-name="© 2020, ServiceLink, All rights reserved." transform="translate(810 2109)" fill="#0a3645" font-size="16" font-family="Helvetica" letter-spacing="0.025em"><tspan x="0" y="0">© 2020, ServiceLink, All rights reserved.</tspan></text>
    <text id="Designed_with_easy_to_understand_interfaces_we_empower_users_with_all_levels_of_experience_and_capability_to_collaborate_and_contribute." data-name="Designed with easy to understand interfaces, we empower users with all levels of experience and capability to collaborate and contribute." transform="translate(972 1487)" fill="#0a3645" font-size="22" font-family="Helvetica" letter-spacing="0.025em"><tspan x="0" y="17">Designed with easy to understand interfaces, we empower </tspan><tspan x="0" y="49">users with all levels of experience and capability to </tspan><tspan x="0" y="81">collaborate and contribute.</tspan></text>
    <text id="Work_flows_follow_logical_progressions_with_clear_feedback_provided_along_the_way" data-name="Work flows follow logical progressions with clear feedback provided along the way" transform="translate(994 1635)" fill="#0a3645" font-size="18" font-family="Helvetica" letter-spacing="0.025em"><tspan x="0" y="14">Work flows follow logical progressions with clear feedback provided </tspan><tspan x="0" y="42">along the way</tspan></text>
    <rect id="Rectangle_19389" data-name="Rectangle 19389" width="9" height="9" transform="translate(972 1638)" fill="#06b4de"/>
    <rect id="Rectangle_19390" data-name="Rectangle 19390" width="9" height="9" transform="translate(972 1716)" fill="#06b4de"/>
    <rect id="Rectangle_19391" data-name="Rectangle 19391" width="9" height="9" transform="translate(972 1795)" fill="#06b4de"/>
    <text id="Actionable_patterns_are_consistent_across_the_platform_making_steps_familiar_but_not_tiresome" data-name="Actionable patterns are consistent across the platform, making steps familiar, but not tiresome" transform="translate(994 1713)" fill="#0a3645" font-size="18" font-family="Helvetica" letter-spacing="0.025em"><tspan x="0" y="14">Actionable patterns are consistent across the platform, making steps </tspan><tspan x="0" y="42">familiar, but not tiresome</tspan></text>
    <text id="Users_can_quickly_resolve_issues_Independently_with_support_tools" data-name="Users can quickly resolve issues Independently with support tools" transform="translate(994 1791)" fill="#0a3645" font-size="18" font-family="Helvetica" letter-spacing="0.025em"><tspan x="0" y="14">Users can quickly resolve issues Independently with support tools</tspan></text>
    <rect id="Rectangle_19512" data-name="Rectangle 19512" width="188" height="188" rx="36" transform="translate(972 1200)" fill="#f0fcff"/>
    <g id="Group_32235" data-name="Group 32235" transform="translate(1011.048 1239.801)">
      <path id="Path_42721" data-name="Path 42721" d="M503.41,1517.362l-31.14-.8a4.606,4.606,0,0,1-4.226-3.073l-10.373-29.423a4.606,4.606,0,0,0-8.688,0l-4.841,13.735h0l-5.531,15.688a4.606,4.606,0,0,1-4.226,3.073l-8.031.206-23.108.593a4.606,4.606,0,0,0-2.688,8.257l24.744,19.011a4.605,4.605,0,0,1,1.61,4.961l-8.868,29.947a4.606,4.606,0,0,0,7.032,5.1l25.637-17.688a4.608,4.608,0,0,1,5.232,0l25.636,17.688a5.072,5.072,0,0,0,.555.328l.063.033a4.612,4.612,0,0,0,.535.222l.094.033a4.48,4.48,0,0,0,.525.134l.106.019a4.41,4.41,0,0,0,.518.056c.036,0,.072,0,.107,0a4.474,4.474,0,0,0,.516-.016c.029,0,.058-.008.087-.011q.229-.027.452-.076c.036-.008.072-.013.107-.022.154-.038.3-.085.453-.138.048-.017.1-.033.142-.052.14-.054.276-.117.409-.184.026-.014.054-.023.079-.036s.074-.043.111-.065l.06-.035c.08-.047.16-.095.237-.146l.007,0h0a4.534,4.534,0,0,0,1.869-5.143l-8.868-29.947a4.607,4.607,0,0,1,1.611-4.961l24.744-19.011A4.606,4.606,0,0,0,503.41,1517.362Z" transform="translate(-398.75 -1480.993)" fill="url(#linear-gradient)"/>
      <g id="Group_32234" data-name="Group 32234" transform="translate(0 16.809)">
        <path id="Path_42722" data-name="Path 42722" d="M403.246,1523a4.606,4.606,0,0,0-2.688,8.257l24.744,19.011a4.605,4.605,0,0,1,1.61,4.961l-8.868,29.947a4.606,4.606,0,0,0,7.032,5.1l25.637-17.688a4.609,4.609,0,0,1,5.232,0l25.636,17.688a4.5,4.5,0,0,0,4.748.293l-59.973-68.16Z" transform="translate(-398.75 -1503.445)" fill="#086dce"/>
        <path id="Path_42723" data-name="Path 42723" d="M444.142,1500.454l-5.531,15.688a4.606,4.606,0,0,1-4.226,3.073l-31.14.8a4.606,4.606,0,0,0-2.688,8.257l24.744,19.011a4.6,4.6,0,0,1,1.61,4.96l-8.868,29.947a4.606,4.606,0,0,0,7.032,5.1l25.637-17.688a4.608,4.608,0,0,1,5.232,0l25.636,17.688a4.518,4.518,0,0,0,5.163.043Z" transform="translate(-398.75 -1500.454)" fill="#086dce" style="mix-blend-mode: multiply;isolation: isolate"/>
      </g>
    </g>
    <text id="Trusted_and_Secure" data-name="Trusted and Secure" transform="translate(373 1531)" fill="#4a636c" font-size="22" font-family="Helvetica-Bold, Helvetica" font-weight="700" letter-spacing="0.025em"><tspan x="0" y="0">Trusted and Secure</tspan></text>
    <text id="Efficient_and_Automated" data-name="Efficient and  Automated" transform="translate(373 1610)" fill="#4a636c" font-size="22" font-family="Helvetica-Bold, Helvetica" font-weight="700" letter-spacing="0.025em"><tspan x="0" y="0" xml:space="preserve">Efficient and  Automated</tspan></text>
    <text id="Accessible_and_Inclusive" data-name="Accessible and Inclusive" transform="translate(373 1849)" fill="#4a636c" font-size="22" font-family="Helvetica-Bold, Helvetica" font-weight="700" letter-spacing="0.025em"><tspan x="0" y="0">Accessible and Inclusive</tspan></text>
    <text id="Innovative_and_Futuristic" data-name="Innovative and Futuristic" transform="translate(373 1769)" fill="#4a636c" font-size="22" font-family="Helvetica-Bold, Helvetica" font-weight="700" letter-spacing="0.025em"><tspan x="0" y="0">Innovative and Futuristic</tspan></text>
    <text id="Robust_and_Reliable" data-name="Robust and Reliable" transform="translate(373 1690)" fill="#4a636c" font-size="22" font-family="Helvetica-Bold, Helvetica" font-weight="700" letter-spacing="0.025em"><tspan x="0" y="0">Robust and Reliable</tspan></text>
    <line id="Line_1347" data-name="Line 1347" x2="398.871" transform="translate(336.5 1483.5)" fill="none" stroke="#dbe1e5" stroke-width="1"/>
    <line id="Line_1349" data-name="Line 1349" x2="399.147" transform="translate(336.5 1643.5)" fill="none" stroke="#dbe1e5" stroke-width="1"/>
    <line id="Line_1350" data-name="Line 1350" x2="399.147" transform="translate(336.5 1723.5)" fill="none" stroke="#dbe1e5" stroke-width="1"/>
    <line id="Line_1351" data-name="Line 1351" x2="399.147" transform="translate(336.5 1803.5)" fill="none" stroke="#dbe1e5" stroke-width="1"/>
    <text id="Empowering_and_Engaging" data-name="Empowering and Engaging" transform="translate(373 1451)" fill="#06b4de" font-size="22" font-family="Helvetica-Bold, Helvetica" font-weight="700" letter-spacing="0.025em"><tspan x="0" y="0">Empowering and Engaging</tspan></text>
    <line id="Line_1352" data-name="Line 1352" x2="399.371" transform="translate(336.5 1403.5)" fill="none" stroke="#dbe1e5" stroke-width="1"/>
    <line id="Line_1354" data-name="Line 1354" x2="399.147" transform="translate(336.5 1883.5)" fill="none" stroke="#dbe1e5" stroke-width="1"/>
    <rect id="Rectangle_19498" data-name="Rectangle 19498" width="3" height="81" transform="translate(336 1403)" fill="#06b4de"/>
    <line id="Line_1348" data-name="Line 1348" x2="398.871" transform="translate(336.5 1563.5)" fill="none" stroke="#dbe1e5" stroke-width="1"/>
    <g id="Component_19_2" data-name="Component 19 – 2" transform="translate(336 1200)">
      <text id="EXOS_Experience_Values" data-name="EXOS Experience Values" transform="translate(0 25)" fill="#0a3645" font-size="32" font-family="Helvetica-Bold, Helvetica" font-weight="700" letter-spacing="0.025em"><tspan x="0" y="0">EXOS Experience Values</tspan></text>
      <text id="We_re_aligning_our_efforts_with_the_goal_of_bringing_Visibility_Accountability_Measurability_and_Predictability_VAMP_to_design." data-name="We’re aligning our efforts with the goal of bringing Visibility, Accountability, Measurability, and Predictability (VAMP) to design." transform="translate(0.5 68)" fill="#0a3645" font-size="18" font-family="Helvetica" letter-spacing="0.025em"><tspan x="0" y="14">We’re aligning our efforts with the goal of bringing </tspan><tspan x="0" y="41" font-family="Helvetica-Bold, Helvetica" font-weight="700">Visibility</tspan><tspan y="41">, </tspan><tspan y="41" font-family="Helvetica-Bold, Helvetica" font-weight="700">Accountability</tspan><tspan y="41">, </tspan><tspan y="41" font-family="Helvetica-Bold, Helvetica" font-weight="700">Measurability</tspan><tspan y="41">, and </tspan><tspan x="0" y="68" font-family="Helvetica-Bold, Helvetica" font-weight="700">Predictability</tspan><tspan y="68" xml:space="preserve"> (VAMP) to design.</tspan></text>
    </g>
    <g id="Group_32267" data-name="Group 32267">
      <path id="Path_42600" data-name="Path 42600" d="M-106.448,0h1080V1920h-1080V0Z" transform="translate(0 973.552) rotate(-90)" fill="url(#linear-gradient-2)"/>
      <path id="Path_42747" data-name="Path 42747" d="M420.5,0C652.736,0,841,188.264,841,420.5S652.736,841,420.5,841,0,652.736,0,420.5,188.264,0,420.5,0Z" transform="translate(912 -131)" opacity="0.8" fill="url(#linear-gradient-3)"/>
    </g>
    <path id="Path_42734" data-name="Path 42734" d="M-106.448,0h280V1920h-280V0Z" transform="translate(1920 906.075) rotate(90)" fill="#0c4f93" opacity="0.3"/>
    <g id="Group_30257" data-name="Group 30257" transform="translate(290 -4.65)">
      <text id="EXOS_Design" data-name="EXOS Design" transform="translate(82 69.397)" fill="#fff" font-size="26" font-family="Helvetica-Bold, Helvetica" font-weight="700" letter-spacing="0.025em"><tspan x="0" y="0">EXOS Design</tspan></text>
      <path id="Path_13676" data-name="Path 13676" d="M30.122,15.061A15.041,15.041,0,1,0,23.878,27.28l.381-.271H20.877l-.07.01a13.29,13.29,0,1,1,6.163-6.125H22.011l-5.571-5.844,7.417-7.791h-2.75L15.066,13.6,9.013,7.259H6.263l7.428,7.791-7.428,7.8h2.75L15.066,16.5l4.2,4.4h-.02l1.867,1.958h6.845l.04-.07c.01-.01.01-.02.02-.03.161-.271.311-.542.462-.823l.12-.241c.09-.191.191-.382.271-.572l.09-.211h-.01A15.15,15.15,0,0,0,30.122,15.061Z" transform="translate(46 45.65)" fill="#fff" stroke="#fff" stroke-width="0.5"/>
      <text id="Transforming_Digital_Mortgage" data-name="Transforming Digital Mortgage" transform="translate(46 93.397)" fill="#fff" font-size="14" font-family="Helvetica-Oblique, Helvetica" font-style="oblique" letter-spacing="0.05em"><tspan x="0" y="0">Transforming Digital Mortgage</tspan></text>
    </g>
    <text id="EXOS_Design_System" data-name="EXOS Design System" transform="translate(336 252)" fill="#fff" font-size="42" font-family="Helvetica-Bold, Helvetica" font-weight="700" letter-spacing="0.025em"><tspan x="0" y="0">EXOS Design System</tspan></text>
    <text id="Creating_together_more_efficiently." data-name="Creating together more efficiently." transform="translate(338 311)" fill="#fff" font-size="28" font-family="Helvetica" letter-spacing="0.025em"><tspan x="0" y="0">Creating together more efficiently.</tspan></text>
    <g id="Group_32225" data-name="Group 32225" transform="translate(77 339.709)">
      <g id="Group_32185" data-name="Group 32185" transform="translate(0)" opacity="0.462">
        <rect id="Rectangle_19470" data-name="Rectangle 19470" width="1620" height="2" transform="translate(0 368.291)" opacity="0.6" fill="url(#linear-gradient-4)"/>
        <rect id="Rectangle_19471" data-name="Rectangle 19471" width="1620" height="2" transform="translate(0 160.291)" opacity="0.6" fill="url(#linear-gradient-5)"/>
        <rect id="Rectangle_19472" data-name="Rectangle 19472" width="517.316" height="2.069" transform="matrix(0.602, -0.799, 0.799, 0.602, 196.851, 446.162)" opacity="0.6" fill="url(#linear-gradient-6)"/>
        <rect id="Rectangle_19473" data-name="Rectangle 19473" width="517.316" height="2.069" transform="translate(1171.348 47.299) rotate(48)" opacity="0.6" fill="url(#linear-gradient-7)"/>
        <rect id="Rectangle_19474" data-name="Rectangle 19474" width="517.316" height="2.069" transform="translate(918.536 0) rotate(68)" opacity="0.6" fill="url(#linear-gradient-8)"/>
        <rect id="Rectangle_19475" data-name="Rectangle 19475" width="517.316" height="2.069" transform="translate(247.588 451.498) rotate(-55)" opacity="0.6" fill="url(#linear-gradient-9)"/>
        <rect id="Rectangle_19476" data-name="Rectangle 19476" width="1620" height="2" transform="translate(0 314.291)" opacity="0.6" fill="url(#linear-gradient-10)"/>
        <rect id="Rectangle_19477" data-name="Rectangle 19477" width="1620" height="3" transform="translate(0 174.291)" opacity="0.6" fill="url(#linear-gradient-11)"/>
        <rect id="Rectangle_19478" data-name="Rectangle 19478" width="517.316" height="2.069" transform="translate(934.007 3.494) rotate(66)" opacity="0.6" fill="url(#linear-gradient-12)"/>
        <rect id="Rectangle_19479" data-name="Rectangle 19479" width="517.316" height="2.069" transform="translate(1142.497 44.321) rotate(49)" opacity="0.6" fill="url(#linear-gradient-13)"/>
      </g>
      <g id="Component_15_2" data-name="Component 15 – 2" transform="translate(274.709 159.579)">
        <g id="Group_32181" data-name="Group 32181" transform="translate(0.275 186.508)">
          <path id="Path_42705" data-name="Path 42705" d="M1514.921,1021.265c.083,5.318-4.229,10.072-13.2,10.072H364.236c-7.284,0-13.074-3.74-13.066-9.685a16.919,16.919,0,0,0-.069,1.715c.036,2.7.069,5.726.069,7.97,0,5.173,6.035,10.346,13.277,10.346H1501.508c10.346,0,13.45-5.173,13.45-11.381v-8.29C1514.958,1021.763,1514.94,1021.513,1514.921,1021.265Z" transform="translate(-351.099 -1021.265)" fill="url(#linear-gradient-14)"/>
        </g>
        <path id="Path_42706" data-name="Path 42706" d="M1501.383,1037.633,363.9,1037.58c-10.134,0-17.377-7.243-10.134-17.589L479.989,854.239C485.162,847.208,491.37,841,500.47,841h840.545c9.1,0,14.051,6.158,22.74,14.846l147.764,164.145C1518.436,1027.554,1514.622,1037.633,1501.383,1037.633Z" transform="translate(-350.833 -841)" opacity="0.8" fill="url(#linear-gradient-15)" style="isolation: isolate"/>
      </g>
    </g>
    <g id="Component_13_2" data-name="Component 13 – 2" transform="translate(438.618 497)">
      <g id="Group_32184" data-name="Group 32184" transform="translate(0 16.696)">
        <g id="Group_32189" data-name="Group 32189" transform="translate(0)">
          <g id="Path_42707" data-name="Path 42707" transform="translate(-447 -855)" fill="url(#linear-gradient-16)">
            <path d="M 1107.779174804688 983.8292846679688 L 458.54296875 983.8292846679688 C 453.8950500488281 983.8292846679688 450.1156921386719 981.882080078125 448.4331970214844 978.6206665039062 C 447.6279602050781 977.0595703125 447.3490295410156 975.3111572265625 447.6040344238281 973.4237670898438 C 447.8807067871094 971.3767700195312 448.7759704589844 969.2775268554688 450.2648620605469 967.184326171875 L 516.6908569335938 872.731201171875 C 521.0762939453125 867.0628051757812 524.4996948242188 862.8253173828125 528.61669921875 859.9156494140625 C 532.9376220703125 856.8619384765625 537.794189453125 855.5000610351562 544.3637084960938 855.5000610351562 L 1053.597290039062 855.5000610351562 C 1059.859741210938 855.5000610351562 1065.213989257812 856.9872436523438 1069.511352539062 859.9203491210938 C 1073.715698242188 862.7899169921875 1076.936889648438 867.0610961914062 1079.085205078125 872.6151733398438 L 1079.087280273438 872.62060546875 L 1079.089599609375 872.6259155273438 L 1118.171875 967.0802001953125 C 1119.184204101562 969.7000122070312 1119.646362304688 972.1082153320312 1119.545654296875 974.2381591796875 C 1119.455932617188 976.1377563476562 1118.919189453125 977.8175659179688 1117.950439453125 979.2308349609375 C 1115.976684570312 982.1101684570312 1112.17431640625 983.8292846679688 1107.779174804688 983.8292846679688 Z" stroke="none"/>
            <path d="M 1107.779174804688 983.3292846679688 C 1112.009399414062 983.3292846679688 1115.657592773438 981.69140625 1117.5380859375 978.9480590820312 C 1118.453491210938 977.6126098632812 1118.9609375 976.02001953125 1119.046264648438 974.2144775390625 C 1119.1435546875 972.156005859375 1118.693237304688 969.8182373046875 1117.707641601562 967.2659301757812 L 1078.627563476562 872.8170776367188 L 1078.623046875 872.8063354492188 L 1078.618896484375 872.7955322265625 C 1076.507690429688 867.337646484375 1073.348754882812 863.144775390625 1069.2294921875 860.3333129882812 C 1065.016723632812 857.4580078125 1059.75732421875 856.0000610351562 1053.597290039062 856.0000610351562 L 544.3637084960938 856.0000610351562 C 537.904052734375 856.0000610351562 533.1365356445312 857.3336791992188 528.9052734375 860.3240356445312 C 524.8472290039062 863.1919555664062 521.448486328125 867.3991088867188 517.0932006835938 873.0282592773438 L 450.6754455566406 967.4697265625 L 450.6738586425781 967.471923828125 L 450.6723022460938 967.4741821289062 C 449.2308654785156 969.5006103515625 448.3652954101562 971.5248413085938 448.0995483398438 973.4907836914062 C 447.8585510253906 975.2745361328125 448.1203002929688 976.92333984375 448.8776245117188 978.3914184570312 C 450.4726257324219 981.4833374023438 454.0857849121094 983.3292846679688 458.54296875 983.3292846679688 L 1107.779174804688 983.3292846679688 M 1107.779174804688 984.3292846679688 L 458.54296875 984.3292846679688 C 448.7717895507812 984.3292846679688 443.3434448242188 976.0520629882812 449.8574523925781 966.89453125 L 516.2880249023438 872.4347534179688 C 524.9735107421875 861.2079467773438 530.3508911132812 855.0000610351562 544.3637084960938 855.0000610351562 L 1053.597290039062 855.0000610351562 C 1066.5234375 855.0000610351562 1075.208862304688 861.2079467773438 1079.551513671875 872.4347534179688 L 1118.636108398438 966.89453125 C 1123.377197265625 979.1559448242188 1115.37890625 984.3292846679688 1107.779174804688 984.3292846679688 Z" stroke="none" fill="#a5deff"/>
          </g>
          <path id="Path_42708" data-name="Path 42708" d="M1108.1,979.927l-649.083.082c-8.052,0-13.035-5.506-10.935-12.609a8.3,8.3,0,0,0-.964,3.724L447,981.454c0,5.634,6.514,9.312,13.96,9.312l638.729-.291c6.514,0,20.1-.775,20.1-11.121l-.251-10.546C1119.841,975.944,1114.616,979.927,1108.1,979.927Z" transform="translate(-447 -851.09)" fill="rgba(82,202,255,0.42)" stroke="#a5deff" stroke-width="1"/>
        </g>
      </g>
      <rect id="Rectangle_19553" data-name="Rectangle 19553" width="593" height="17" transform="translate(37.382)" fill="none"/>
    </g>
    <g id="Component_14_2" data-name="Component 14 – 2" transform="translate(1161.735 314.766)">
      <g id="Group_32187" data-name="Group 32187" transform="translate(0 29.067)">
        <g transform="matrix(1, 0, 0, 1, -1161.74, -343.83)" filter="url(#Union_1)">
          <g id="Union_1-3" data-name="Union 1" transform="translate(1161.74 343.83)" fill="rgba(240,242,245,0.3)">
            <path d="M 37.43551254272461 210.1810150146484 L 26.37924957275391 199.1247711181641 L 26.15956497192383 198.9051055908203 L 25.84890747070312 198.9051055908203 L 9.999907493591309 198.9051055908203 C 4.899486541748047 198.9051055908203 0.7500128149986267 194.755615234375 0.7500128149986267 189.6551971435547 L 0.7500128149986267 9.99990177154541 C 0.7500128149986267 4.899481296539307 4.899486541748047 0.7500075101852417 9.999907493591309 0.7500075101852417 L 63.83069610595703 0.7500075101852417 C 68.93112182617188 0.7500075101852417 73.08061981201172 4.899481296539307 73.08061981201172 9.99990177154541 L 73.08061981201172 189.6551971435547 C 73.08061981201172 194.755615234375 68.93112182617188 198.9051055908203 63.83069610595703 198.9051055908203 L 49.02209091186523 198.9051055908203 L 48.71143341064453 198.9051055908203 L 48.49174880981445 199.1247711181641 L 37.43551254272461 210.1810150146484 Z" stroke="none"/>
            <path d="M 37.43549728393555 209.1203765869141 L 47.96144104003906 198.5944366455078 L 48.40077590942383 198.1551055908203 L 49.0221061706543 198.1551055908203 L 63.83069229125977 198.1551055908203 C 68.51755523681641 198.1551055908203 72.33060455322266 194.3420715332031 72.33060455322266 189.6552124023438 L 72.33060455322266 9.999905586242676 C 72.33060455322266 5.31304407119751 68.51755523681641 1.500016331672668 63.83069229125977 1.500016331672668 L 9.999913215637207 1.500016331672668 C 5.313052177429199 1.500016331672668 1.499996662139893 5.31304407119751 1.499996662139893 9.999905586242676 L 1.499996662139893 189.6552124023438 C 1.499996662139893 194.3420715332031 5.313052177429199 198.1551055908203 9.999913215637207 198.1551055908203 L 25.84891319274902 198.1551055908203 L 26.47024726867676 198.1551055908203 L 26.90958023071289 198.5944366455078 L 37.43549728393555 209.1203765869141 M 37.43549728393555 211.2417144775391 L 25.84891319274902 199.6551055908203 L 9.999913215637207 199.6551055908203 C 4.47749662399292 199.6551055908203 -3.278944177509402e-06 195.1776275634766 -3.278944177509402e-06 189.6552124023438 L -3.278944177509402e-06 9.999905586242676 C -3.278944177509402e-06 4.477516174316406 4.47749662399292 1.627604251552839e-05 9.999913215637207 1.627604251552839e-05 L 63.83069229125977 1.627604251552839e-05 C 69.35399627685547 1.627604251552839e-05 73.83060455322266 4.477516174316406 73.83060455322266 9.999905586242676 L 73.83060455322266 189.6552124023438 C 73.83060455322266 195.1776275634766 69.35399627685547 199.6551055908203 63.83069229125977 199.6551055908203 L 49.0221061706543 199.6551055908203 L 37.43549728393555 211.2417144775391 Z" stroke="none" fill="#bfcfd5"/>
          </g>
        </g>
        <g transform="matrix(1, 0, 0, 1, -1161.74, -343.83)" filter="url(#Helvetica)">
          <text id="Helvetica-3" data-name="Helvetica" transform="translate(1194.8 480) rotate(-90)" fill="#fff" font-size="24" font-family="Helvetica-Bold, Helvetica" font-weight="700" letter-spacing="0.025em"><tspan x="0" y="0">Helvetica</tspan></text>
        </g>
        <g transform="matrix(1, 0, 0, 1, -1161.74, -343.83)" filter="url(#Helvetica-2)">
          <text id="Helvetica-4" data-name="Helvetica" transform="translate(1215.66 439) rotate(-90)" fill="#fff" font-size="16" font-family="Helvetica" letter-spacing="0.025em"><tspan x="0" y="0">Helvetica</tspan></text>
        </g>
      </g>
      <g id="Group_32188" data-name="Group 32188" transform="translate(109.583)">
        <g id="Group_23127" data-name="Group 23127" transform="translate(0 0)">
          <g id="Group_23125" data-name="Group 23125">
            <g transform="matrix(1, 0, 0, 1, -1271.32, -314.77)" filter="url(#Union_1-2)">
              <g id="Union_1-4" data-name="Union 1" transform="translate(1271.32 314.77)" fill="rgba(240,242,245,0.35)">
                <path d="M 37.47333145141602 289.5127258300781 L 26.40229415893555 278.5973510742188 L 26.18329429626465 278.3814086914062 L 25.87572288513184 278.3814086914062 L 9.99990177154541 278.3814086914062 C 4.899508953094482 278.3814086914062 0.7500091195106506 274.23193359375 0.7500091195106506 269.1315002441406 L 0.7500091195106506 9.999887466430664 C 0.7500091195106506 4.899494647979736 4.899508953094482 0.749994695186615 9.99990177154541 0.749994695186615 L 63.90540313720703 0.749994695186615 C 69.00579833984375 0.749994695186615 73.15529632568359 4.899494647979736 73.15529632568359 9.999887466430664 L 73.15529632568359 269.1315002441406 C 73.15529632568359 274.23193359375 69.00579833984375 278.3814086914062 63.90540313720703 278.3814086914062 L 49.07161712646484 278.3814086914062 L 48.76408004760742 278.3814086914062 L 48.54508209228516 278.5973510742188 L 37.47333145141602 289.5127258300781 Z" stroke="none"/>
                <path d="M 37.47333908081055 288.4595031738281 L 48.01853561401367 278.063232421875 L 48.45653533935547 277.6314086914062 L 49.07161331176758 277.6314086914062 L 63.90542221069336 277.6314086914062 C 68.59226989746094 277.6314086914062 72.40530395507812 273.8183898925781 72.40530395507812 269.1315002441406 L 72.40530395507812 9.999881744384766 C 72.40530395507812 5.31303596496582 68.59226989746094 1.499997496604919 63.90542221069336 1.499997496604919 L 9.999920845031738 1.499997496604919 C 5.313036441802979 1.499997496604919 1.499998092651367 5.31303596496582 1.499998092651367 9.999881744384766 L 1.499998092651367 269.1315002441406 C 1.499998092651367 273.8183898925781 5.313036441802979 277.6314086914062 9.999920845031738 277.6314086914062 L 25.87572860717773 277.6314086914062 L 26.4908447265625 277.6314086914062 L 26.9288444519043 278.0632629394531 L 37.47333908081055 288.4595031738281 M 37.47330474853516 290.56591796875 L 25.87572860717773 279.1314086914062 L 9.999920845031738 279.1314086914062 C 4.477498054504395 279.1314086914062 -1.868614845079719e-06 274.6548156738281 -1.868614845079719e-06 269.1315002441406 L -1.868614845079719e-06 9.999881744384766 C -1.868614845079719e-06 4.477497577667236 4.477498054504395 -2.554086449890747e-06 9.999920845031738 -2.554086449890747e-06 L 63.90542221069336 -2.554086449890747e-06 C 69.42868804931641 -2.554086449890747e-06 73.90530395507812 4.477497577667236 73.90530395507812 9.999881744384766 L 73.90530395507812 269.1315002441406 C 73.90530395507812 274.6548156738281 69.42868804931641 279.1314086914062 63.90542221069336 279.1314086914062 L 49.07161331176758 279.1314086914062 L 37.47330474853516 290.56591796875 Z" stroke="none" fill="#bfcfd5"/>
              </g>
            </g>
          </g>
        </g>
        <g id="Group_32139" data-name="Group 32139" transform="translate(21.018 28.507)">
          <g transform="matrix(1, 0, 0, 1, -1292.34, -343.27)" filter="url(#Path_42626)">
            <path id="Path_42626-2" data-name="Path 42626" d="M436.108,1391.835c.059-.057,14.784-14.83,14.784-14.83l2.056-2.047a4.966,4.966,0,0,0-.012-7.016l-.339-.352h0l0,0,0,0h0l-.352-.339a4.967,4.967,0,0,0-7.016-.013l-2.046,2.057-14.831,14.783a1.246,1.246,0,0,0-.377.646l-1.5,8.99-.009.009.008,0,0,.007.009-.008,8.99-1.5A1.233,1.233,0,0,0,436.108,1391.835Zm10.638-23.025a2.85,2.85,0,0,1,4.023.021l.3.285.285.3a2.85,2.85,0,0,1,.02,4.022l-.625.673a.148.148,0,0,1-.107.048.152.152,0,0,1-.108-.043l-2.238-2.222-2.222-2.239a.15.15,0,0,1-.044-.109.152.152,0,0,1,.048-.107ZM434.7,1390.24l-5.439.844a.152.152,0,0,1-.127-.041.148.148,0,0,1-.04-.125l.843-5.44a.155.155,0,0,1,.042-.082l14.357-14.273a.149.149,0,0,1,.106-.044h0a.15.15,0,0,1,.107.044l2.242,2.258h0l0,0,0,0h0l2.258,2.243a.153.153,0,0,1,.045.106h0a.152.152,0,0,1-.044.106L434.785,1390.2A.153.153,0,0,1,434.7,1390.24Z" transform="translate(869.08 -1022.51)" fill="#fff"/>
          </g>
          <g transform="matrix(1, 0, 0, 1, -1292.34, -343.27)" filter="url(#Path_42631)">
            <path id="Path_42631-2" data-name="Path 42631" d="M584.968,2835.268a2.149,2.149,0,0,1-1.651-.774c-2.377-2.853-10.13-12.689-10.13-19.49a11.782,11.782,0,0,1,23.563,0c0,6.8-7.754,16.638-10.13,19.49a2.145,2.145,0,0,1-1.651.773Zm0-30.059a9.806,9.806,0,0,0-9.794,9.793c0,6.293,8.055,16.281,9.671,18.219a.162.162,0,0,0,.248,0c1.615-1.938,9.671-11.922,9.671-18.217a9.806,9.806,0,0,0-9.793-9.8Zm0,16.055a6.2,6.2,0,1,1,6.2-6.2,6.2,6.2,0,0,1-6.2,6.2Zm0-10.359a4.16,4.16,0,1,0,4.164,4.159,4.161,4.161,0,0,0-4.164-4.159Z" transform="translate(723.16 -2405.47)" fill="#fff"/>
          </g>
          <g id="Group_32136" data-name="Group 32136" transform="translate(3.205 166.015)">
            <g transform="matrix(1, 0, 0, 1, -1295.54, -509.29)" filter="url(#Path_14079)">
              <path id="Path_14079-2" data-name="Path 14079" d="M1170.94,2681.5v-8.585a10.125,10.125,0,0,0-5.292-8.938,4.942,4.942,0,0,0-9.878,0,10.315,10.315,0,0,0-5.292,8.938v8.585a3.014,3.014,0,0,0,.412,6h5a4.967,4.967,0,0,0,9.643,0h5a3.014,3.014,0,0,0,.412-6Zm-10.231,7.409a2.633,2.633,0,0,1-2.352-1.411H1163a2.484,2.484,0,0,1-2.294,1.411Zm9.82-3.765h-19.58a.647.647,0,0,1,0-1.294h0a1.088,1.088,0,0,1,.706,0,1.179,1.179,0,0,0,1.176-1.176v-9.7a7.88,7.88,0,0,1,7.879-7.879,1.176,1.176,0,1,0,0-2.352,10.111,10.111,0,0,0-2.293.236,2.727,2.727,0,0,1,2.293-1.411,2.61,2.61,0,0,1,2.587,2.586.35.35,0,0,0,.059.235,1.148,1.148,0,0,0,.646,1.294,7.985,7.985,0,0,1,4.587,7.174v9.7a1.179,1.179,0,0,0,1.176,1.177,1.086,1.086,0,0,1,.706,0,.652.652,0,0,1,.646.646c0,.356-.233.768-.588.768Z" transform="translate(147.65 -2149.93)" fill="#fff"/>
            </g>
          </g>
          <g transform="matrix(1, 0, 0, 1, -1292.34, -343.27)" filter="url(#Path_42635)">
            <path id="Path_42635-2" data-name="Path 42635" d="M1175.426,2530.145l-14.86-9.727a1.124,1.124,0,0,0-1.237,0l-14.923,9.742a1.13,1.13,0,1,0,1.236,1.893l1.959-1.279v10.447a3.034,3.034,0,0,0,3.03,3.03h3.709a3.033,3.033,0,0,0,3.03-3.03v-2.273h0v-.988a1.011,1.011,0,0,1,1.01-1.01h3.131a1.011,1.011,0,0,1,1.01,1.01v.988h0v2.273a3.033,3.033,0,0,0,3.03,3.03h3.466a3.034,3.034,0,0,0,3.03-3.03v-10.584l2.141,1.4a1.131,1.131,0,0,0,1.239-1.892Zm-5.4,11.075a1.011,1.011,0,0,1-1.009,1.01h-3.466a1.011,1.011,0,0,1-1.01-1.01v-1.02h0v-2.241a3.033,3.033,0,0,0-3.03-3.03h-3.131a3.034,3.034,0,0,0-3.031,3.03v2.149h0v1.113a1.011,1.011,0,0,1-1.009,1.01h-3.709a1.011,1.011,0,0,1-1.009-1.01v-11.764l10.324-6.74,10.08,6.6Z" transform="translate(148.44 -2062.4)" fill="#fff"/>
          </g>
        </g>
      </g>
    </g>
    <line id="Line_1356" data-name="Line 1356" x2="1920" transform="translate(0.5 799.5)" fill="none" stroke="#fff" stroke-width="1" opacity="0.3"/>
    <line id="Line_1357" data-name="Line 1357" y2="284" transform="translate(960 796.5)" fill="none" stroke="#fff" stroke-width="1" opacity="0.3"/>
    <text id="Enterprise-facing_large_scale_platform" data-name="Enterprise-facing large scale platform" transform="translate(336 911)" fill="#fff" font-size="22" font-family="Helvetica" letter-spacing="0.025em"><tspan x="0" y="17">Enterprise-facing large scale platform</tspan></text>
    <text id="EXOS_Enterprise" data-name="EXOS Enterprise" transform="translate(336 874)" fill="#fff" font-size="28" font-family="Helvetica-Bold, Helvetica" font-weight="700" letter-spacing="0.025em"><tspan x="0" y="0">EXOS Enterprise</tspan></text>
    <text id="Vendor_and_consumer-facing_mobile_app" data-name="Vendor and consumer-facing mobile app" transform="translate(997 911)" fill="#fff" font-size="22" font-family="Helvetica" letter-spacing="0.025em"><tspan x="0" y="17">Vendor and consumer-facing mobile app</tspan></text>
    <text id="EXOS_Mobile" data-name="EXOS Mobile" transform="translate(997 874)" fill="#fff" font-size="28" font-family="Helvetica-Bold, Helvetica" font-weight="700" letter-spacing="0.025em"><tspan x="0" y="0">EXOS Mobile</tspan></text>
    <g id="Component_12_2" data-name="Component 12 – 2" transform="translate(530.989 502)">
      <g id="Group_32193" data-name="Group 32193" transform="translate(0 58.985)">
        <g id="Group_32190" data-name="Group 32190" opacity="0.9">
          <ellipse id="Ellipse_6351" data-name="Ellipse 6351" cx="46.232" cy="16.556" rx="46.232" ry="16.556" opacity="0.9" fill="url(#linear-gradient-17)"/>
          <g transform="matrix(1, 0, 0, 1, -530.99, -560.98)" filter="url(#Path_42640)">
            <path id="Path_42640-2" data-name="Path 42640" d="M609.74,917.272c-.052,9.129-20.728,16.523-46.229,16.523-25.533,0-46.23-7.412-46.23-16.556h0v9.91c0,8.882,20.7,16.083,46.231,16.083s46.232-7.2,46.232-16.083V917.3C609.743,917.295,609.74,917.283,609.74,917.272Z" transform="translate(13.71 -339.7)" fill="#20afd9"/>
          </g>
        </g>
      </g>
      <g id="Group_32191" data-name="Group 32191" transform="translate(97.293 17.669)">
        <path id="Path_42636" data-name="Path 42636" d="M973.7,884.4H664.779c-18.222,0-33.046-7.923-33.046-17.663s18.963-17.664,37.185-17.664H969.566c18.222,0,37.185,7.924,37.185,17.664S991.923,884.4,973.7,884.4Z" transform="translate(-631.729 -849.075)" opacity="0.9" fill="url(#linear-gradient-18)"/>
        <g transform="matrix(1, 0, 0, 1, -628.28, -519.67)" filter="url(#Path_42639)">
          <path id="Path_42639-2" data-name="Path 42639" d="M1006.746,866.175v-.021c-.006,9.737-14.828,17.658-33.046,17.658H664.774c-18.2,0-33.017-7.91-33.045-17.636v8.087c0,9.744,14.824,17.664,33.046,17.664h308.93c18.222,0,33.046-7.924,33.046-17.664v-8.088Z" transform="translate(-3.45 -328.81)" fill="#dec775" opacity="0.9"/>
        </g>
      </g>
      <rect id="Rectangle_19552" data-name="Rectangle 19552" width="480" height="18" transform="translate(0.011)" fill="none"/>
    </g>
    <text id="ABOUT_US" data-name="ABOUT US" transform="translate(1188 66)" fill="#fff" font-size="16" font-family="Helvetica-Bold, Helvetica" font-weight="700" letter-spacing="0.1em"><tspan x="-47.377" y="0">ABOUT US</tspan></text>
    <text id="ARTICLES" transform="translate(1538 66)" fill="#fff" font-size="16" font-family="Helvetica-Bold, Helvetica" font-weight="700" letter-spacing="0.1em"><tspan x="-45.6" y="0">ARTICLES</tspan></text>
    <g id="Component_17_2" data-name="Component 17 – 2" transform="translate(336 980)">
      <g id="Rectangle_19532" data-name="Rectangle 19532" fill="rgba(255,255,255,0.1)" stroke="rgba(255,255,255,0.6)" stroke-width="1">
        <rect width="360" height="45" rx="3" stroke="none"/>
        <rect x="0.5" y="0.5" width="359" height="44" rx="2.5" fill="none"/>
      </g>
      <path id="Rectangle_19533" data-name="Rectangle 19533" d="M0,0H157a3,3,0,0,1,3,3V42a3,3,0,0,1-3,3H0a0,0,0,0,1,0,0V0A0,0,0,0,1,0,0Z" transform="translate(200)" fill="#fff"/>
      <text id="GET_STARTED" data-name="GET STARTED" transform="translate(280.018 28.25)" fill="#066dce" stroke="rgba(0,0,0,0)" stroke-width="1" font-size="14" font-family="Helvetica-Bold, Helvetica" font-weight="700" letter-spacing="0.1em"><tspan x="-55.874" y="0">GET STARTED</tspan></text>
      <text id="V1.0_Beta_" data-name="V1.0 (Beta)" transform="translate(18 28)" fill="#fff" font-size="16" font-family="Helvetica" letter-spacing="0.025em"><tspan x="0" y="0">V1.0 (Beta)</tspan></text>
      <g id="chevron-down" transform="translate(188.05 38)">
        <g id="chevron-down-2" data-name="chevron-down" transform="translate(-24.05 -24)">
          <g id="Grids">
            <rect id="Rectangle_19510" data-name="Rectangle 19510" width="17.963" height="17.963" fill="none"/>
            <path id="Path_42330" d="M.1,0V17.963H18.063V0ZM16.528,5.988h-.711V3.742a1.5,1.5,0,0,0-.112-.561,1.5,1.5,0,0,1,.823,1.31Zm1.5,5.988H16.566V8.981h1.459Zm-16.428,0h.711V14.22a1.5,1.5,0,0,0,.112.561,1.5,1.5,0,0,1-.823-1.31v-1.5ZM.1,5.988H1.559V8.981H.137Zm11.6.3a2.421,2.421,0,0,0-.337-.3h.674Zm-.037.075L9.081,8.944V6.025h2.208A3.374,3.374,0,0,1,11.663,6.362ZM9.081,5.988V5.277a3.762,3.762,0,0,1,2.17.711Zm-.037,0H6.873a3.762,3.762,0,0,1,2.17-.711Zm0,.037V8.944L6.462,6.362a3.374,3.374,0,0,1,.374-.337Zm-2.62.3-.3-.3H6.8A1.465,1.465,0,0,0,6.424,6.324Zm-.037.037a2.421,2.421,0,0,0-.3.337V6.025Zm.037,0,2.582,2.62H6.088V6.773A3.977,3.977,0,0,1,6.424,6.362ZM6.05,8.981H5.339a3.762,3.762,0,0,1,.711-2.17Zm0,.037v2.17a3.762,3.762,0,0,1-.711-2.17H6.05Zm.037,0H9.006L6.424,11.6a3.374,3.374,0,0,1-.337-.374Zm.3,2.62-.3.3v-.674c.112.112.187.262.3.374Zm.037.037a2.421,2.421,0,0,0,.337.3H6.088Zm.037-.037,2.582-2.62v2.919H6.836a1.465,1.465,0,0,1-.374-.3Zm2.582.337v.711a3.762,3.762,0,0,1-2.17-.711Zm.037,0h2.17a3.762,3.762,0,0,1-2.17.711v-.711Zm0-.037V9.019L11.663,11.6a3.374,3.374,0,0,1-.374.337Zm2.62-.3.3.3h-.674A3.272,3.272,0,0,0,11.7,11.638Zm.037-.037a2.421,2.421,0,0,0,.3-.337v.674Zm-.037,0L9.119,9.019h2.919v2.208a3.374,3.374,0,0,1-.337.374Zm.374-2.582h.711a3.762,3.762,0,0,1-.711,2.17Zm0-.037V6.811a3.762,3.762,0,0,1,.711,2.17Zm-.037,0H9.119L11.7,6.362a3.374,3.374,0,0,1,.337.374Zm-.3-2.62.3-.3v.674A1.465,1.465,0,0,0,11.738,6.362Zm.3-.374h-.748a3.656,3.656,0,0,0-2.208-.748V3.031h2.956Zm.037-2.956h2.919L12.075,5.95ZM9.081,2.994V2.283h2.956v.711Zm-.037,0H6.088V2.283H9.044Zm0,.037V5.239a3.656,3.656,0,0,0-2.208.748H6.088V3.031ZM6.05,5.95,3.131,3.031H6.05Zm-.037.037H3.094V3.031Zm.037.037v.711A3.683,3.683,0,0,0,5.3,8.981H3.094V6.025ZM3.056,8.981H2.345V6.025h.711Zm0,.037v2.956H2.345V8.981Zm.037,0H5.3a3.656,3.656,0,0,0,.748,2.208v.748H3.094Zm2.919,2.994L3.094,14.931V11.975Zm.037.037v2.919H3.131Zm.037-.037h.748a3.619,3.619,0,0,0,2.208.711v2.208H6.088Zm2.956,2.956v.711H6.088v-.711Zm.037,0h2.956v.711H9.081Zm0-.037V12.723a3.656,3.656,0,0,0,2.208-.748h.748v2.956Zm2.994-2.919,2.919,2.919H12.075Zm.037-.037h2.919v2.919Zm-.037-.037v-.711a3.656,3.656,0,0,0,.748-2.208h2.208v2.956Zm2.994-2.956h.711v2.956h-.711Zm0-.037V5.988h.711V8.981Zm-.037.037H12.823a3.656,3.656,0,0,0-.748-2.208V6.025h2.956ZM12.112,5.988l2.919-2.956V5.988Zm2.919-2.994H12.075V2.283h2.208a1.551,1.551,0,0,1,.6.112A1.761,1.761,0,0,1,15.031,2.994Zm-.075-.561a1.344,1.344,0,0,1,.374.262l-.262.262a1.469,1.469,0,0,0-.112-.524Zm-.674-.187H12.075V1.534h1.459a1.5,1.5,0,0,1,1.31.823A1.5,1.5,0,0,0,14.283,2.245Zm-2.245,0H9.081V1.534h2.956Zm-2.994,0H6.088V1.534H9.044Zm-2.994,0H3.842a1.367,1.367,0,0,0-.561.112,1.5,1.5,0,0,1,1.31-.823H6.05Zm-2.208.037H6.05v.711H3.094a1.7,1.7,0,0,1,.112-.6,1.9,1.9,0,0,1,.636-.112Zm-.786.674-.262-.262a1.344,1.344,0,0,1,.374-.262A1.321,1.321,0,0,0,3.056,2.956Zm0,.037a1.2,1.2,0,0,0-.524.112,1.344,1.344,0,0,1,.262-.374Zm.037.037V5.988H2.345V3.742a1.551,1.551,0,0,1,.112-.6,1.9,1.9,0,0,1,.636-.112Zm-.786.711V5.988H1.6v-1.5a1.46,1.46,0,0,1,.823-1.31A1.5,1.5,0,0,0,2.308,3.742Zm0,2.245V8.981H1.6V6.025ZM.1,8.981H1.559v2.956H.137Zm1.5,0h.711v2.956H1.6Zm.748,5.239V11.975h.711v2.956a1.7,1.7,0,0,1-.6-.112A1.7,1.7,0,0,1,2.345,14.22Zm.711.748-.262.262a1.344,1.344,0,0,1-.262-.374A1.2,1.2,0,0,0,3.056,14.969Zm.037.037a1.2,1.2,0,0,0,.112.524,1.344,1.344,0,0,1-.374-.262Zm.037-.037H6.05v.711H3.842a1.551,1.551,0,0,1-.6-.112,1.141,1.141,0,0,1-.112-.6Zm.711.748H6.05v.711H4.591a1.5,1.5,0,0,1-1.31-.823,1.367,1.367,0,0,0,.561.112Zm2.245,0H9.044v.711H6.088Zm2.994,0h2.956v.711H9.081Zm2.994,0h2.208a1.5,1.5,0,0,0,.561-.112,1.5,1.5,0,0,1-1.31.823H12.075Zm2.208-.037H12.038v-.711h2.994a1.367,1.367,0,0,1-.112.561,1.23,1.23,0,0,1-.636.15Zm.748-.674.262.262a1.344,1.344,0,0,1-.374.262A1.321,1.321,0,0,0,15.031,15.006Zm.037-.037a1.2,1.2,0,0,0,.524-.112,1.344,1.344,0,0,1-.262.374Zm0-.037V11.975h.711V14.22a1.551,1.551,0,0,1-.112.6,1.7,1.7,0,0,1-.6.112Zm.748-.711V11.975h.711v1.5a1.4,1.4,0,0,1-.823,1.31,1.5,1.5,0,0,0,.112-.561Zm0-2.245V8.981h.711v2.956Zm2.208-2.994H16.566V6.025h1.459Zm-1.5,0h-.711V6.025h.711ZM15.78,3.742V5.988h-.711V3.031a1.367,1.367,0,0,1,.561.112A1.185,1.185,0,0,1,15.78,3.742Zm-.711-.748.262-.262a1.344,1.344,0,0,1,.262.374A1.2,1.2,0,0,0,15.069,2.994Zm.262-.3a1.346,1.346,0,0,0-.449-.3,1.422,1.422,0,0,0-1.347-.9H12.075V.037h5.913ZM12.038,1.5H9.081V.037h2.956Zm-2.994,0H6.088V.037H9.044ZM6.05,1.5H4.591a1.51,1.51,0,0,0-1.385.9,1.545,1.545,0,0,0-.412.262L.175.037H6.05Zm-3.293,1.2a1.346,1.346,0,0,0-.3.449,1.479,1.479,0,0,0-.9,1.347v1.5H.137V.075ZM.137,11.975H1.559v1.5a1.51,1.51,0,0,0,.9,1.385,3.122,3.122,0,0,0,.3.449l-2.62,2.62Zm2.657,3.293a1.662,1.662,0,0,0,.412.3,1.575,1.575,0,0,0,1.385.9H6.05v1.459H.137Zm3.293,1.2H9.044v1.459H6.088Zm2.994,0h2.956v1.459H9.081Zm2.994,0h1.459a1.51,1.51,0,0,0,1.385-.9,3.122,3.122,0,0,0,.449-.3l2.62,2.62H12.075Zm3.293-1.2a1.346,1.346,0,0,0,.3-.449,1.445,1.445,0,0,0,.861-1.347v-1.5h1.5v5.913Zm2.657-9.281H16.566v-1.5a1.51,1.51,0,0,0-.9-1.385,3.122,3.122,0,0,0-.3-.449l2.62-2.62Z" transform="translate(-0.063)" fill="none"/>
            <path id="Path_42725" data-name="Path 42725" d="M11.484,18.969a7.484,7.484,0,1,1,7.484-7.484A7.506,7.506,0,0,1,11.484,18.969Zm0-14.931a7.447,7.447,0,1,0,7.484,7.447,7.466,7.466,0,0,0-7.484-7.447Z" transform="translate(-2.503 -2.503)" fill="none"/>
            <path id="Path_42726" data-name="Path 42726" d="M5.725,16.072,11.9,22.247a.723.723,0,0,0,1.048,0l6.175-6.175a.741.741,0,0,0-1.048-1.048l-5.613,5.613L6.772,15.025a.741.741,0,0,0-1.048,1.048Z" transform="translate(-3.442 -9.262)" fill="#fff"/>
          </g>
        </g>
      </g>
    </g>
    <g id="Component_18_7" data-name="Component 18 – 7" transform="translate(1281 43)">
      <g id="Group_32270" data-name="Group 32270" transform="translate(-1281 -43)">
        <rect id="Rectangle_19565" data-name="Rectangle 19565" width="165" height="34" transform="translate(1281 43)" fill="none"/>
      </g>
      <g id="Group_32271" data-name="Group 32271" transform="translate(-1292 -43)">
        <text id="RESOURCES" transform="translate(1363 66)" fill="#fff" font-size="16" font-family="Helvetica-Bold, Helvetica" font-weight="700" letter-spacing="0.1em"><tspan x="-57.076" y="0">RESOURCES</tspan></text>
        <g id="chevron-down-3" data-name="chevron-down" transform="translate(1450.05 75)">
          <g id="chevron-down-4" data-name="chevron-down" transform="translate(-24.05 -24)">
            <g id="Grids-2" data-name="Grids">
              <rect id="Rectangle_19510-2" data-name="Rectangle 19510" width="17.963" height="17.963" fill="none"/>
              <path id="Path_42330-2" data-name="Path_42330" d="M.1,0V17.963H18.063V0ZM16.528,5.988h-.711V3.742a1.5,1.5,0,0,0-.112-.561,1.5,1.5,0,0,1,.823,1.31Zm1.5,5.988H16.566V8.981h1.459Zm-16.428,0h.711V14.22a1.5,1.5,0,0,0,.112.561,1.5,1.5,0,0,1-.823-1.31v-1.5ZM.1,5.988H1.559V8.981H.137Zm11.6.3a2.421,2.421,0,0,0-.337-.3h.674Zm-.037.075L9.081,8.944V6.025h2.208A3.374,3.374,0,0,1,11.663,6.362ZM9.081,5.988V5.277a3.762,3.762,0,0,1,2.17.711Zm-.037,0H6.873a3.762,3.762,0,0,1,2.17-.711Zm0,.037V8.944L6.462,6.362a3.374,3.374,0,0,1,.374-.337Zm-2.62.3-.3-.3H6.8A1.465,1.465,0,0,0,6.424,6.324Zm-.037.037a2.421,2.421,0,0,0-.3.337V6.025Zm.037,0,2.582,2.62H6.088V6.773A3.977,3.977,0,0,1,6.424,6.362ZM6.05,8.981H5.339a3.762,3.762,0,0,1,.711-2.17Zm0,.037v2.17a3.762,3.762,0,0,1-.711-2.17H6.05Zm.037,0H9.006L6.424,11.6a3.374,3.374,0,0,1-.337-.374Zm.3,2.62-.3.3v-.674c.112.112.187.262.3.374Zm.037.037a2.421,2.421,0,0,0,.337.3H6.088Zm.037-.037,2.582-2.62v2.919H6.836a1.465,1.465,0,0,1-.374-.3Zm2.582.337v.711a3.762,3.762,0,0,1-2.17-.711Zm.037,0h2.17a3.762,3.762,0,0,1-2.17.711v-.711Zm0-.037V9.019L11.663,11.6a3.374,3.374,0,0,1-.374.337Zm2.62-.3.3.3h-.674A3.272,3.272,0,0,0,11.7,11.638Zm.037-.037a2.421,2.421,0,0,0,.3-.337v.674Zm-.037,0L9.119,9.019h2.919v2.208a3.374,3.374,0,0,1-.337.374Zm.374-2.582h.711a3.762,3.762,0,0,1-.711,2.17Zm0-.037V6.811a3.762,3.762,0,0,1,.711,2.17Zm-.037,0H9.119L11.7,6.362a3.374,3.374,0,0,1,.337.374Zm-.3-2.62.3-.3v.674A1.465,1.465,0,0,0,11.738,6.362Zm.3-.374h-.748a3.656,3.656,0,0,0-2.208-.748V3.031h2.956Zm.037-2.956h2.919L12.075,5.95ZM9.081,2.994V2.283h2.956v.711Zm-.037,0H6.088V2.283H9.044Zm0,.037V5.239a3.656,3.656,0,0,0-2.208.748H6.088V3.031ZM6.05,5.95,3.131,3.031H6.05Zm-.037.037H3.094V3.031Zm.037.037v.711A3.683,3.683,0,0,0,5.3,8.981H3.094V6.025ZM3.056,8.981H2.345V6.025h.711Zm0,.037v2.956H2.345V8.981Zm.037,0H5.3a3.656,3.656,0,0,0,.748,2.208v.748H3.094Zm2.919,2.994L3.094,14.931V11.975Zm.037.037v2.919H3.131Zm.037-.037h.748a3.619,3.619,0,0,0,2.208.711v2.208H6.088Zm2.956,2.956v.711H6.088v-.711Zm.037,0h2.956v.711H9.081Zm0-.037V12.723a3.656,3.656,0,0,0,2.208-.748h.748v2.956Zm2.994-2.919,2.919,2.919H12.075Zm.037-.037h2.919v2.919Zm-.037-.037v-.711a3.656,3.656,0,0,0,.748-2.208h2.208v2.956Zm2.994-2.956h.711v2.956h-.711Zm0-.037V5.988h.711V8.981Zm-.037.037H12.823a3.656,3.656,0,0,0-.748-2.208V6.025h2.956ZM12.112,5.988l2.919-2.956V5.988Zm2.919-2.994H12.075V2.283h2.208a1.551,1.551,0,0,1,.6.112A1.761,1.761,0,0,1,15.031,2.994Zm-.075-.561a1.344,1.344,0,0,1,.374.262l-.262.262a1.469,1.469,0,0,0-.112-.524Zm-.674-.187H12.075V1.534h1.459a1.5,1.5,0,0,1,1.31.823A1.5,1.5,0,0,0,14.283,2.245Zm-2.245,0H9.081V1.534h2.956Zm-2.994,0H6.088V1.534H9.044Zm-2.994,0H3.842a1.367,1.367,0,0,0-.561.112,1.5,1.5,0,0,1,1.31-.823H6.05Zm-2.208.037H6.05v.711H3.094a1.7,1.7,0,0,1,.112-.6,1.9,1.9,0,0,1,.636-.112Zm-.786.674-.262-.262a1.344,1.344,0,0,1,.374-.262A1.321,1.321,0,0,0,3.056,2.956Zm0,.037a1.2,1.2,0,0,0-.524.112,1.344,1.344,0,0,1,.262-.374Zm.037.037V5.988H2.345V3.742a1.551,1.551,0,0,1,.112-.6,1.9,1.9,0,0,1,.636-.112Zm-.786.711V5.988H1.6v-1.5a1.46,1.46,0,0,1,.823-1.31A1.5,1.5,0,0,0,2.308,3.742Zm0,2.245V8.981H1.6V6.025ZM.1,8.981H1.559v2.956H.137Zm1.5,0h.711v2.956H1.6Zm.748,5.239V11.975h.711v2.956a1.7,1.7,0,0,1-.6-.112A1.7,1.7,0,0,1,2.345,14.22Zm.711.748-.262.262a1.344,1.344,0,0,1-.262-.374A1.2,1.2,0,0,0,3.056,14.969Zm.037.037a1.2,1.2,0,0,0,.112.524,1.344,1.344,0,0,1-.374-.262Zm.037-.037H6.05v.711H3.842a1.551,1.551,0,0,1-.6-.112,1.141,1.141,0,0,1-.112-.6Zm.711.748H6.05v.711H4.591a1.5,1.5,0,0,1-1.31-.823,1.367,1.367,0,0,0,.561.112Zm2.245,0H9.044v.711H6.088Zm2.994,0h2.956v.711H9.081Zm2.994,0h2.208a1.5,1.5,0,0,0,.561-.112,1.5,1.5,0,0,1-1.31.823H12.075Zm2.208-.037H12.038v-.711h2.994a1.367,1.367,0,0,1-.112.561,1.23,1.23,0,0,1-.636.15Zm.748-.674.262.262a1.344,1.344,0,0,1-.374.262A1.321,1.321,0,0,0,15.031,15.006Zm.037-.037a1.2,1.2,0,0,0,.524-.112,1.344,1.344,0,0,1-.262.374Zm0-.037V11.975h.711V14.22a1.551,1.551,0,0,1-.112.6,1.7,1.7,0,0,1-.6.112Zm.748-.711V11.975h.711v1.5a1.4,1.4,0,0,1-.823,1.31,1.5,1.5,0,0,0,.112-.561Zm0-2.245V8.981h.711v2.956Zm2.208-2.994H16.566V6.025h1.459Zm-1.5,0h-.711V6.025h.711ZM15.78,3.742V5.988h-.711V3.031a1.367,1.367,0,0,1,.561.112A1.185,1.185,0,0,1,15.78,3.742Zm-.711-.748.262-.262a1.344,1.344,0,0,1,.262.374A1.2,1.2,0,0,0,15.069,2.994Zm.262-.3a1.346,1.346,0,0,0-.449-.3,1.422,1.422,0,0,0-1.347-.9H12.075V.037h5.913ZM12.038,1.5H9.081V.037h2.956Zm-2.994,0H6.088V.037H9.044ZM6.05,1.5H4.591a1.51,1.51,0,0,0-1.385.9,1.545,1.545,0,0,0-.412.262L.175.037H6.05Zm-3.293,1.2a1.346,1.346,0,0,0-.3.449,1.479,1.479,0,0,0-.9,1.347v1.5H.137V.075ZM.137,11.975H1.559v1.5a1.51,1.51,0,0,0,.9,1.385,3.122,3.122,0,0,0,.3.449l-2.62,2.62Zm2.657,3.293a1.662,1.662,0,0,0,.412.3,1.575,1.575,0,0,0,1.385.9H6.05v1.459H.137Zm3.293,1.2H9.044v1.459H6.088Zm2.994,0h2.956v1.459H9.081Zm2.994,0h1.459a1.51,1.51,0,0,0,1.385-.9,3.122,3.122,0,0,0,.449-.3l2.62,2.62H12.075Zm3.293-1.2a1.346,1.346,0,0,0,.3-.449,1.445,1.445,0,0,0,.861-1.347v-1.5h1.5v5.913Zm2.657-9.281H16.566v-1.5a1.51,1.51,0,0,0-.9-1.385,3.122,3.122,0,0,0-.3-.449l2.62-2.62Z" transform="translate(-0.063)" fill="none"/>
              <path id="Path_42725-2" data-name="Path 42725" d="M11.484,18.969a7.484,7.484,0,1,1,7.484-7.484A7.506,7.506,0,0,1,11.484,18.969Zm0-14.931a7.447,7.447,0,1,0,7.484,7.447,7.466,7.466,0,0,0-7.484-7.447Z" transform="translate(-2.503 -2.503)" fill="none"/>
              <path id="Path_42726-2" data-name="Path 42726" d="M5.725,16.072,11.9,22.247a.723.723,0,0,0,1.048,0l6.175-6.175a.741.741,0,0,0-1.048-1.048l-5.613,5.613L6.772,15.025a.741.741,0,0,0-1.048,1.048Z" transform="translate(-3.442 -9.262)" fill="#fff"/>
            </g>
          </g>
        </g>
      </g>
    </g>
    <text id="available_in_THE_NEAR_future_" data-name="available in THE NEAR future… " transform="translate(1163 1007)" fill="#def5fb" font-size="16" font-family="Helvetica-Bold, Helvetica" font-weight="700" letter-spacing="0.1em"><tspan x="-166.02" y="0">AVAILABLE IN THE NEAR FUTURE… </tspan></text>
  </g>
</svg>
