<?xml version="1.0" encoding="utf-8"?>
<!-- Generator: Adobe Illustrator 23.1.1, SVG Export Plug-In . SVG Version: 6.00 Build 0)  -->
<svg version="1.1" id="Layer_1" xmlns="http://www.w3.org/2000/svg" xmlns:xlink="http://www.w3.org/1999/xlink" x="0px" y="0px"
	 viewBox="0 0 78 78" style="enable-background:new 0 0 78 78;" xml:space="preserve">
<style type="text/css">
	.st0{fill:#42210B;}
	.st1{fill:#2C3E50;}
</style>
<g>
	<path class="st1" d="M39,0C17.5,0,0,17.5,0,39s17.5,39,39,39s39-17.5,39-39S60.5,0,39,0z M39,72C20.8,72,6,57.2,6,39S20.8,6,39,6
		s33,14.8,33,33S57.2,72,39,72z"/>
	<path class="st1" d="M50.05,30.15L39,33.84l-11.05-3.68c-1.57-0.53-3.27,0.33-3.79,1.9c-0.52,1.57,0.33,3.27,1.9,3.79L36,39.16
		v4.93l-7.5,11.24c-0.92,1.38-0.55,3.24,0.83,4.16C29.85,59.84,30.42,60,31,60c0.97,0,1.92-0.47,2.5-1.34L39,50.41l5.5,8.26
		c0.92,1.38,2.79,1.75,4.16,0.83c1.38-0.92,1.75-2.78,0.83-4.16L42,44.09v-4.93l9.95-3.32c1.57-0.52,2.42-2.22,1.9-3.79
		C53.32,30.48,51.63,29.63,50.05,30.15z"/>
	<path class="st1" d="M39,26c2.76,0,5-2.24,5-5s-2.24-5-5-5s-5,2.24-5,5S36.24,26,39,26z"/>
</g>
</svg>
