<?xml version="1.0" encoding="utf-8"?>
<!-- Generator: Adobe Illustrator 23.1.1, SVG Export Plug-In . SVG Version: 6.00 Build 0)  -->
<svg version="1.1" id="Layer_1" xmlns="http://www.w3.org/2000/svg" xmlns:xlink="http://www.w3.org/1999/xlink" x="0px" y="0px"
	 viewBox="0 0 39 39" style="enable-background:new 0 0 39 39;" xml:space="preserve">
<style type="text/css">
	.st0{fill:none;}
	.st1{fill:#7952B3;}
</style>
<g>
	<path class="st0" d="M19.2,19.8h-4.7v7.1l5,0c3,0,4.6-1.2,4.6-3.5S22.4,19.8,19.2,19.8z"/>
	<path class="st0" d="M18.5,17.7c3,0,4.6-1.2,4.6-3.4c0-2-1.4-3.1-3.8-3.1h-4.8l0,6.4H18.5z"/>
	<path class="st0" d="M32,3H7C4.8,3,3,4.8,3,7v25c0,2.2,1.8,4,4,4h25c2.2,0,4-1.8,4-4V7C36,4.8,34.2,3,32,3z M19.8,29.1l-7.8,0V9
		h7.9c3.4,0,5.8,2,5.8,5c0,2.1-1.4,3.9-3.5,4.4v0.1c2.6,0.2,4.6,2.4,4.5,4.9C26.6,27,24.1,29.1,19.8,29.1z"/>
	<path class="st1" d="M22.2,18.5v-0.1c2-0.5,3.5-2.3,3.5-4.4c0-3-2.3-5-5.8-5H12v20.1l7.8,0c4.3,0,6.8-2.1,6.8-5.6
		C26.7,20.9,24.7,18.7,22.2,18.5z M19.3,11.2c2.4,0,3.8,1.1,3.8,3.1c0,2.2-1.6,3.4-4.6,3.4h-4l0-6.4H19.3z M19.5,26.9l-5,0v-7.1h4.7
		c3.2,0,4.8,1.2,4.8,3.5S22.5,26.9,19.5,26.9z"/>
	<path class="st1" d="M32,0H7C3.1,0,0,3.1,0,7v25c0,3.9,3.1,7,7,7h25c3.9,0,7-3.1,7-7V7C39,3.1,35.9,0,32,0z M36,32c0,2.2-1.8,4-4,4
		H7c-2.2,0-4-1.8-4-4V7c0-2.2,1.8-4,4-4h25c2.2,0,4,1.8,4,4V32z"/>
</g>
</svg>
