<?xml version="1.0" encoding="utf-8"?>
<!-- Generator: Adobe Illustrator 23.1.1, SVG Export Plug-In . SVG Version: 6.00 Build 0)  -->
<svg version="1.1" id="Layer_1" xmlns="http://www.w3.org/2000/svg" xmlns:xlink="http://www.w3.org/1999/xlink" x="0px" y="0px"
	 viewBox="0 0 33.91 33.92" style="enable-background:new 0 0 33.91 33.92;" xml:space="preserve">
<style type="text/css">
	.st0{fill:#2C3E50;}
</style>
<path class="st0" d="M33.05,20.26l-9.17-3.67c-0.63-0.25-1.34-0.01-1.69,0.57l-2.08,3.46c-2.82-1.64-5.19-4.01-6.83-6.83l3.46-2.08
	c0.58-0.35,0.82-1.06,0.57-1.69l-3.67-9.17C13.44,0.34,12.93,0,12.37,0H5.04C2.26,0,0,2.26,0,5.12
	C0.94,20.6,13.32,32.97,28.87,33.92c2.78,0,5.04-2.26,5.04-5.04v-7.33C33.91,20.98,33.57,20.47,33.05,20.26z M31.16,28.88
	c0,1.26-1.03,2.29-2.21,2.29C14.87,30.31,3.6,19.04,2.75,5.04c0-1.26,1.03-2.29,2.29-2.29h6.4l2.89,7.21l-3.58,2.15
	c-0.61,0.37-0.84,1.14-0.53,1.79c2.08,4.23,5.56,7.71,9.79,9.79c0.64,0.31,1.42,0.09,1.79-0.53l2.15-3.58l7.22,2.88V28.88z"/>
</svg>
