<?xml version="1.0" encoding="utf-8"?>
<!-- Generator: Adobe Illustrator 23.1.1, SVG Export Plug-In . SVG Version: 6.00 Build 0)  -->
<svg version="1.1" id="Layer_1" xmlns="http://www.w3.org/2000/svg" xmlns:xlink="http://www.w3.org/1999/xlink" x="0px" y="0px"
	 viewBox="0 0 78 78" style="enable-background:new 0 0 78 78;" xml:space="preserve">
<style type="text/css">
	.st0{fill:#42210B;}
	.st1{fill:#2C3E50;}
</style>
<g>
	<path class="st1" d="M39,0C17.5,0,0,17.5,0,39c0,21.5,17.5,39,39,39s39-17.5,39-39C78,17.5,60.5,0,39,0z M39,72
		C20.8,72,6,57.2,6,39C6,20.8,20.8,6,39,6s33,14.8,33,33C72,57.2,57.2,72,39,72z"/>
	<path class="st1" d="M48.88,28.88L35,42.76l-5.88-5.88c-1.17-1.17-3.07-1.17-4.24,0c-1.17,1.17-1.17,3.07,0,4.24l8,8
		C33.44,49.68,34.2,50,35,50c0.79,0,1.56-0.32,2.12-0.88l16-16c1.17-1.17,1.17-3.07,0-4.24C51.95,27.71,50.05,27.71,48.88,28.88z"/>
</g>
</svg>
