<?xml version="1.0" encoding="utf-8"?>
<!-- Generator: Adobe Illustrator 23.1.1, SVG Export Plug-In . SVG Version: 6.00 Build 0)  -->
<svg version="1.1" id="Layer_1" xmlns="http://www.w3.org/2000/svg" xmlns:xlink="http://www.w3.org/1999/xlink" x="0px" y="0px"
	 viewBox="0 0 78.74 78.74" style="enable-background:new 0 0 78.74 78.74;" xml:space="preserve">
<style type="text/css">
	.st0{fill:#42210B;}
	.st1{fill:#2C3E50;}
</style>
<path class="st0" d="M77.85,57.42L59.81,39.37l7.93-7.93c0.01-0.01,0.01-0.01,0.02-0.02c0.01-0.01,0.01-0.01,0.02-0.02l6.04-6.04
	c2.73-2.73,4.24-6.36,4.24-10.22c0-3.86-1.5-7.49-4.24-10.22C71.08,2.2,67.46,0.69,63.6,0.69c-3.86,0-7.49,1.5-10.22,4.23
	L39.37,18.94L21.32,0.89c-1.18-1.18-3.1-1.18-4.28,0L0.89,17.04c-1.18,1.18-1.18,3.1,0,4.28l10.09,10.09c0,0,0,0,0.01,0.01
	c0,0,0,0,0.01,0.01l7.95,7.95L0.89,57.42C0.32,57.99,0,58.76,0,59.56v16.15c0,1.67,1.36,3.03,3.03,3.03h16.15
	c0.8,0,1.57-0.32,2.14-0.89l18.05-18.05l7.95,7.95c0,0,0,0,0,0c0,0,0,0,0,0l10.09,10.09c0.59,0.59,1.37,0.89,2.14,0.89
	c0.77,0,1.55-0.29,2.14-0.89L77.85,61.7C79.03,60.52,79.03,58.6,77.85,57.42z M69.53,9.21c1.59,1.59,2.46,3.69,2.46,5.94
	c0,2.24-0.87,4.35-2.46,5.93l-3.91,3.91L53.75,13.12l3.92-3.92C60.83,6.04,66.36,6.04,69.53,9.21z M17.41,29.27l3.92-3.92
	c1.18-1.18,1.18-3.1,0-4.28c-1.18-1.18-3.1-1.18-4.28,0l-3.92,3.92l-5.81-5.81L19.18,7.31l15.91,15.91L23.22,35.09L17.41,29.27z
	 M17.93,72.68H6.06V60.81l43.41-43.41l11.87,11.87L17.93,72.68z M59.56,71.43l-5.81-5.81l3.92-3.92c1.18-1.18,1.18-3.1,0-4.28
	c-1.18-1.18-3.1-1.18-4.28,0l-3.92,3.92l-5.81-5.81l11.87-11.87l15.91,15.91L59.56,71.43z"/>
</svg>
