<?xml version="1.0" encoding="utf-8"?>
<!-- Generator: Adobe Illustrator 23.1.1, SVG Export Plug-In . SVG Version: 6.00 Build 0)  -->
<svg version="1.1" id="Layer_1" xmlns="http://www.w3.org/2000/svg" xmlns:xlink="http://www.w3.org/1999/xlink" x="0px" y="0px"
	 viewBox="0 0 78 70" style="enable-background:new 0 0 78 70;" xml:space="preserve">
<style type="text/css">
	.st0{fill:#42210B;}
	.st1{fill:#2C3E50;}
</style>
<path class="st1" d="M71,16h-5V7c0-3.86-3.14-7-7-7H7C3.14,0,0,3.14,0,7v48c0,3.86,3.14,7,7,7h33v1c0,3.86,3.14,7,7,7h24
	c3.86,0,7-3.14,7-7V23C78,19.14,74.86,16,71,16z M7,56c-0.55,0-1-0.45-1-1V7c0-0.55,0.45-1,1-1h52c0.55,0,1,0.45,1,1v9H47
	c-3.86,0-7,3.14-7,7v33H7z M72,63c0,0.55-0.45,1-1,1H47c-0.55,0-1-0.45-1-1V23c0-0.55,0.45-1,1-1h5.17C52.06,22.31,52,22.65,52,23
	c0,1.66,1.34,3,3,3h8c1.66,0,3-1.34,3-3c0-0.35-0.06-0.69-0.17-1H71c0.55,0,1,0.45,1,1V63z"/>
</svg>
