<?xml version="1.0" encoding="utf-8"?>
<!-- Generator: Adobe Illustrator 23.1.1, SVG Export Plug-In . SVG Version: 6.00 Build 0)  -->
<svg version="1.1" id="Layer_1" xmlns="http://www.w3.org/2000/svg" xmlns:xlink="http://www.w3.org/1999/xlink" x="0px" y="0px"
	 viewBox="0 0 35.75 35.75" style="enable-background:new 0 0 35.75 35.75;" xml:space="preserve">
<style type="text/css">
	.st0{fill:#2C3E50;}
</style>
<path class="st0" d="M30.53,5.25C27.16,1.87,22.67,0.01,17.9,0c-0.01,0-0.02,0-0.02,0C13.11,0,8.63,1.85,5.25,5.22
	C1.87,8.59,0.01,13.08,0,17.85s1.85,9.27,5.22,12.65c3.37,3.38,7.86,5.25,12.63,5.25c0.01,0,0.02,0,0.02,0
	c2.4,0,4.74-0.47,6.95-1.41c0.7-0.29,1.03-1.1,0.73-1.8c-0.29-0.7-1.1-1.03-1.8-0.73C21.89,32.6,19.91,33,17.88,33
	c-0.01,0-0.01,0-0.02,0c-4.04,0-7.84-1.58-10.69-4.44c-2.85-2.86-4.42-6.66-4.42-10.7s1.58-7.84,4.44-10.69
	c2.86-2.85,6.65-4.42,10.68-4.42c0.01,0,0.01,0,0.02,0c4.04,0,7.84,1.58,10.69,4.44C31.44,10.05,33,13.85,33,17.9v2.75
	c0,1.77-1.44,3.21-3.21,3.21s-3.21-1.44-3.21-3.21V17.9c0-4.8-3.91-8.71-8.71-8.71s-8.71,3.91-8.71,8.71s3.91,8.71,8.71,8.71
	c2.68,0,5.08-1.22,6.68-3.13c1.01,1.86,2.98,3.13,5.24,3.13c3.29,0,5.96-2.67,5.96-5.96V17.9C35.76,13.12,33.9,8.63,30.53,5.25z
	 M17.88,23.85c-3.29,0-5.96-2.67-5.96-5.96c0-3.29,2.67-5.96,5.96-5.96c3.29,0,5.96,2.67,5.96,5.96
	C23.83,21.18,21.16,23.85,17.88,23.85z"/>
</svg>
