<?xml version="1.0" encoding="utf-8"?>
<!-- Generator: Adobe Illustrator 23.1.1, SVG Export Plug-In . SVG Version: 6.00 Build 0)  -->
<svg version="1.1" id="Layer_1" xmlns="http://www.w3.org/2000/svg" xmlns:xlink="http://www.w3.org/1999/xlink" x="0px" y="0px"
	 viewBox="0 0 22.92 35.75" style="enable-background:new 0 0 22.92 35.75;" xml:space="preserve">
<style type="text/css">
	.st0{fill:#2C3E50;}
</style>
<path class="st0" d="M16.04,10.08h5.5c0.76,0,1.38-0.62,1.38-1.38V1.38C22.92,0.62,22.3,0,21.54,0h-5.5C10.23,0,5.5,4.73,5.5,10.54
	v2.29H1.38C0.62,12.83,0,13.45,0,14.21v7.33c0,0.76,0.62,1.38,1.38,1.38H5.5v11.46c0,0.76,0.62,1.38,1.38,1.38h7.33
	c0.76,0,1.38-0.62,1.38-1.38V22.92h4.12c0.63,0,1.18-0.43,1.33-1.04l1.83-7.33c0.1-0.41,0.01-0.85-0.25-1.18
	c-0.26-0.33-0.66-0.53-1.08-0.53h-5.96v-2.29C15.58,10.29,15.79,10.08,16.04,10.08z M14.21,15.58h5.57l-1.15,4.58h-4.43
	c-0.76,0-1.38,0.62-1.38,1.38V33H8.25V21.54c0-0.76-0.62-1.38-1.38-1.38H2.75v-4.58h4.12c0.76,0,1.38-0.62,1.38-1.38v-3.67
	c0-4.3,3.5-7.79,7.79-7.79h4.12v4.58h-4.12c-1.77,0-3.21,1.44-3.21,3.21v3.67C12.83,14.97,13.45,15.58,14.21,15.58z"/>
</svg>
