<?xml version="1.0" encoding="utf-8"?>
<!-- Generator: Adobe Illustrator 23.1.1, SVG Export Plug-In . SVG Version: 6.00 Build 0)  -->
<svg version="1.1" id="Layer_1" xmlns="http://www.w3.org/2000/svg" xmlns:xlink="http://www.w3.org/1999/xlink" x="0px" y="0px"
	 viewBox="0 0 33.92 35.61" style="enable-background:new 0 0 33.92 35.61;" xml:space="preserve">
<style type="text/css">
	.st0{fill:#2C3E50;}
</style>
<path class="st0" d="M33.92,13.15c0-2.28-0.78-4.45-2.21-6.19c0.56-2.03,0.39-4.16-0.48-6.1c-0.17-0.38-0.5-0.66-0.89-0.76
	c-0.42-0.12-2.68-0.52-7.03,2.23c-3.57-0.83-7.3-0.83-10.87,0C8.09-0.43,5.83-0.02,5.41,0.09C5.02,0.2,4.69,0.48,4.52,0.85
	c-0.87,1.94-1.04,4.08-0.48,6.1c-1.43,1.75-2.21,3.91-2.21,6.19c0,9.08,5.65,11.38,9.25,12.08c-0.25,0.9-0.19,1.8-0.09,2.68v1.63
	c-3.49,0.83-4.65-0.86-5.98-2.8c-0.85-1.25-1.74-2.53-3.26-2.98c-0.73-0.21-1.49,0.2-1.71,0.93c-0.21,0.73,0.2,1.49,0.93,1.71
	c0.58,0.17,1.16,1.01,1.76,1.9c1.37,2,3.38,4.93,8.25,4.05v1.9c0,0.76,0.62,1.38,1.38,1.38s1.38-0.62,1.38-1.38V30.6
	c0-0.02,0-0.04,0-0.06v-2.72c0-0.06,0-0.11-0.01-0.17c-0.18-1.43-0.08-1.92,0.53-2.52c0.37-0.38,0.5-0.93,0.32-1.43
	c-0.18-0.5-0.62-0.85-1.15-0.91c-4.6-0.49-8.85-2-8.85-9.63c0-1.84,0.71-3.59,1.99-4.91C6.95,7.86,7.07,7.3,6.88,6.8
	c-0.49-1.3-0.54-2.69-0.15-4c0.8,0.12,2.35,0.58,4.7,2.15c0.33,0.22,0.73,0.28,1.11,0.19c3.49-0.91,7.18-0.91,10.67,0
	c0.38,0.1,0.78,0.03,1.11-0.19c2.37-1.58,3.92-2.03,4.7-2.16c0.39,1.31,0.34,2.71-0.15,4.01c-0.19,0.5-0.07,1.06,0.3,1.44
	c1.29,1.32,1.99,3.07,2,4.91c0,7.63-4.26,9.14-8.85,9.63c-0.53,0.06-0.97,0.41-1.15,0.91c-0.18,0.5-0.05,1.06,0.32,1.43
	c0.52,0.52,0.54,0.68,0.52,1.99c0,0.22-0.01,0.45-0.01,0.7v6.42c0,0.76,0.62,1.38,1.38,1.38s1.38-0.62,1.38-1.38v-6.42l0.01-0.66
	c0.01-0.69,0.02-1.32-0.12-1.92C28.24,24.54,33.92,22.26,33.92,13.15z"/>
</svg>
