<?xml version="1.0" encoding="utf-8"?>
<!-- Generator: Adobe Illustrator 23.1.1, SVG Export Plug-In . SVG Version: 6.00 Build 0)  -->
<svg version="1.1" id="Layer_1" xmlns="http://www.w3.org/2000/svg" xmlns:xlink="http://www.w3.org/1999/xlink" x="0px" y="0px"
	 viewBox="0 0 32.08 32.08" style="enable-background:new 0 0 32.08 32.08;" xml:space="preserve">
<style type="text/css">
	.st0{fill:#2C3E50;}
</style>
<g>
	<path class="st0" d="M23.38,0H8.71C3.91,0,0,3.91,0,8.71v14.67c0,4.8,3.91,8.71,8.71,8.71h14.67c4.8,0,8.71-3.91,8.71-8.71V8.71
		C32.08,3.91,28.18,0,23.38,0z M29.33,23.38c0,3.29-2.67,5.96-5.96,5.96H8.71c-3.29,0-5.96-2.67-5.96-5.96V8.71
		c0-3.29,2.67-5.96,5.96-5.96h14.67c3.29,0,5.96,2.67,5.96,5.96V23.38z"/>
	<path class="st0" d="M16.04,9.17c-3.79,0-6.88,3.08-6.88,6.88s3.08,6.88,6.88,6.88s6.88-3.08,6.88-6.88S19.83,9.17,16.04,9.17z
		 M16.04,20.17c-2.27,0-4.12-1.85-4.12-4.12s1.85-4.12,4.12-4.12s4.12,1.85,4.12,4.12S18.32,20.17,16.04,20.17z"/>
	<circle class="st0" cx="25.28" cy="7.73" r="1.5"/>
</g>
</svg>
