<?xml version="1.0" encoding="utf-8"?>
<!-- Generator: Adobe Illustrator 23.1.1, SVG Export Plug-In . SVG Version: 6.00 Build 0)  -->
<svg version="1.1" id="Layer_1" xmlns="http://www.w3.org/2000/svg" xmlns:xlink="http://www.w3.org/1999/xlink" x="0px" y="0px"
	 viewBox="0 0 32.08 32.08" style="enable-background:new 0 0 32.08 32.08;" xml:space="preserve">
<style type="text/css">
	.st0{fill:#2C3E50;}
</style>
<g>
	<path class="st0" d="M27.04,0h-22C2.26,0,0,2.26,0,5.04v22c0,2.78,2.26,5.04,5.04,5.04h22c2.78,0,5.04-2.26,5.04-5.04v-22
		C32.08,2.26,29.82,0,27.04,0z M29.33,27.04c0,1.26-1.03,2.29-2.29,2.29h-22c-1.26,0-2.29-1.03-2.29-2.29v-22
		c0-1.26,1.03-2.29,2.29-2.29h22c1.26,0,2.29,1.03,2.29,2.29V27.04z"/>
	<path class="st0" d="M8.71,12.83c-0.76,0-1.38,0.62-1.38,1.38v9.17c0,0.76,0.62,1.38,1.38,1.38s1.38-0.62,1.38-1.38v-9.17
		C10.08,13.45,9.47,12.83,8.71,12.83z"/>
	<path class="st0" d="M8.71,7.34c-0.76,0-1.38,0.62-1.38,1.38s0.62,1.38,1.38,1.38s1.38-0.62,1.38-1.38V8.71
		C10.08,7.95,9.47,7.34,8.71,7.34z"/>
	<path class="st0" d="M19.71,12.83c-0.91,0-1.75,0.26-2.49,0.68c-0.24-0.41-0.68-0.68-1.18-0.68c-0.76,0-1.38,0.62-1.38,1.38v9.17
		c0,0.76,0.62,1.38,1.38,1.38s1.38-0.62,1.38-1.38v-5.5c0-1.26,1.03-2.29,2.29-2.29S22,16.61,22,17.88v5.5
		c0,0.76,0.62,1.38,1.38,1.38s1.38-0.62,1.38-1.38v-5.5C24.75,15.09,22.49,12.83,19.71,12.83z"/>
</g>
</svg>
