<?xml version="1.0" encoding="utf-8"?>
<!-- Generator: Adobe Illustrator 23.1.1, SVG Export Plug-In . SVG Version: 6.00 Build 0)  -->
<svg version="1.1" id="Layer_1" xmlns="http://www.w3.org/2000/svg" xmlns:xlink="http://www.w3.org/1999/xlink" x="0px" y="0px"
	 viewBox="0 0 78 118.7" style="enable-background:new 0 0 78 118.7;" xml:space="preserve">
<style type="text/css">
	.st0{fill:#42210B;}
	.st1{fill:#2C3E50;}
</style>
<g>
	<path class="st1" d="M66.13,0H11.87C5.33,0,0,5.33,0,11.87v94.96c0,6.54,5.33,11.87,11.87,11.87h54.26
		c6.54,0,11.87-5.33,11.87-11.87V11.87C78,5.33,72.67,0,66.13,0z M67.83,106.83c0,0.94-0.76,1.7-1.69,1.7H11.87
		c-0.94,0-1.69-0.76-1.69-1.7V11.87c0-0.94,0.76-1.7,1.69-1.7h15.56c-0.19,0.53-0.3,1.1-0.3,1.7c0,2.81,2.28,5.09,5.09,5.09h13.57
		c2.81,0,5.09-2.28,5.09-5.09c0-0.6-0.11-1.16-0.3-1.7h15.56c0.94,0,1.69,0.76,1.69,1.7V106.83z"/>
	<path class="st1" d="M39,88.21c-2.81,0-5.09,2.31-5.09,5.12s2.28,5.09,5.09,5.09c2.81,0,5.09-2.28,5.09-5.09v-0.07
		C44.09,90.45,41.81,88.21,39,88.21z"/>
</g>
</svg>
