<svg xmlns="http://www.w3.org/2000/svg" width="57.011" height="42.734" viewBox="0 0 57.011 42.734">
  <path id="sass-1" d="M48.962,24.78a11.745,11.745,0,0,0-5.167,1.2,10.628,10.628,0,0,1-1.158-2.673,7.392,7.392,0,0,1-.1-2.249,18.025,18.025,0,0,1,.679-2.428c-.011-.1-.123-.59-1.269-.6s-2.138.223-2.249.523a12.79,12.79,0,0,0-.479,1.7c-.2,1.047-2.294,4.755-3.486,6.7A6.839,6.839,0,0,1,34.942,25a7.391,7.391,0,0,1-.1-2.249,18.034,18.034,0,0,1,.679-2.428c-.011-.1-.122-.59-1.269-.6s-2.138.223-2.249.523-.234,1.013-.479,1.7-3.018,6.882-3.742,8.5c-.367.824-.69,1.481-.924,1.927s-.011.033-.033.078l-.312.59v.011c-.156.278-.323.546-.4.546a3.714,3.714,0,0,1,.022-1.77c.412-2.149,1.414-5.5,1.4-5.624,0-.056.189-.646-.646-.947a1.015,1.015,0,0,0-1.169.2c-.067,0-.122.178-.122.178s.9-3.775-1.726-3.775c-1.648,0-3.92,1.793-5.045,3.43-.713.39-2.227,1.214-3.831,2.094-.612.334-1.247.69-1.849,1.013l-.122-.134c-3.185-3.4-9.076-5.8-8.831-10.368.089-1.659.668-6.036,11.314-11.336,8.719-4.343,15.7-3.151,16.915-.5,1.726,3.786-3.731,10.824-12.8,11.837-3.452.39-5.267-.947-5.724-1.448-.479-.523-.546-.546-.724-.445-.29.156-.111.624,0,.9a5.375,5.375,0,0,0,3.274,2.572c1.659.546,5.713.846,10.613-1.047,5.49-2.127,9.777-8.029,8.519-12.962C34.307.448,25.978-1.2,18.1,1.595A39.634,39.634,0,0,0,4.686,9.29C.343,13.343-.348,16.884-.058,18.354.955,23.6,8.182,27.018,11.078,29.546c-.145.078-.278.156-.4.223-1.448.713-6.96,3.6-8.341,6.648-1.559,3.452.245,5.936,1.448,6.27A8.9,8.9,0,0,0,13.372,38.8a9.617,9.617,0,0,0,.857-8.853L14.2,29.88l1.136-.668c.735-.434,1.459-.835,2.094-1.181a13.865,13.865,0,0,0-.746,3.786,7.9,7.9,0,0,0,1.7,5.5,1.885,1.885,0,0,0,1.37.445c1.225,0,1.782-1.013,2.394-2.227.757-1.481,1.425-3.2,1.425-3.2s-.835,4.644,1.448,4.644c.835,0,1.67-1.08,2.049-1.637v.011s.022-.033.067-.111.091-.14.134-.211v-.022c.334-.579,1.08-1.9,2.194-4.1,1.436-2.829,2.817-6.37,2.817-6.37a20.325,20.325,0,0,0,.546,2.294,21.952,21.952,0,0,0,1.191,2.673c-.334.468-.535.735-.535.735l.011.011c-.267.356-.568.735-.88,1.114a32.365,32.365,0,0,0-2.673,3.352.918.918,0,0,0,.245,1.225,2.229,2.229,0,0,0,1.4.223,6.25,6.25,0,0,0,2.094-.479,7.251,7.251,0,0,0,1.8-.947,4.016,4.016,0,0,0,1.726-3.552,7.142,7.142,0,0,0-.657-2.506c.1-.145.2-.29.3-.445a47.008,47.008,0,0,0,3.118-5.4,20.326,20.326,0,0,0,.546,2.294,16.083,16.083,0,0,0,1.013,2.294,9.9,9.9,0,0,0-3.04,3.931c-.657,1.893-.145,2.751.824,2.951A2.964,2.964,0,0,0,40.844,34a6.913,6.913,0,0,0,1.927-.991A4.356,4.356,0,0,0,44.9,29.49a6.746,6.746,0,0,0-.479-2.082,10.849,10.849,0,0,1,5.523-.635c4.955.579,5.935,3.675,5.746,4.967a3.326,3.326,0,0,1-1.57,2.227c-.345.212-.457.29-.423.445.045.234.2.223.5.178a3.855,3.855,0,0,0,2.695-3.441c.134-3.063-2.773-6.4-7.929-6.37ZM10.744,37.664C9.107,39.457,6.8,40.136,5.822,39.557c-1.058-.612-.646-3.252,1.37-5.156a26.2,26.2,0,0,1,3.864-2.884c.234-.145.59-.356,1.013-.612a1.187,1.187,0,0,1,.111-.067c.078-.045.167-.1.256-.156A7.1,7.1,0,0,1,10.744,37.664Zm11.971-8.14c-.568,1.392-1.771,4.967-2.494,4.766-.624-.167-1-2.873-.123-5.546a12.38,12.38,0,0,1,1.949-3.575c.9-1,1.882-1.336,2.127-.924C24.463,24.78,23.071,28.655,22.715,29.524Zm9.878,4.722c-.245.123-.468.212-.568.145-.078-.045.1-.212.1-.212s1.236-1.325,1.726-1.938c.278-.356.612-.768.969-1.236v.134c0,1.6-1.537,2.673-2.227,3.107Zm7.617-1.737c-.178-.134-.156-.546.445-1.837a6.885,6.885,0,0,1,1.693-2.183,2.755,2.755,0,0,1,.167.958A3.133,3.133,0,0,1,40.209,32.508Z" transform="translate(0.116 -0.241)" fill="#cf649a"/>
</svg>
